<svg xmlns="http://www.w3.org/2000/svg" xmlns:xlink="http://www.w3.org/1999/xlink" viewBox="0 0 34.02 29.7"><defs><style>.cls-1{fill:#ffffc9;}.cls-2{fill:#ccc;}.cls-3{fill:#e6e6e6;}.cls-4{fill:none;stroke:#ffffc9;stroke-linecap:round;stroke-miterlimit:10;stroke-width:0.5px;}.cls-5{fill:url(#linear-gradient);}</style><linearGradient id="linear-gradient" x1="-555.56" y1="563.05" x2="-553.95" y2="564.41" gradientTransform="translate(593.01 -523.49) rotate(3.92)" gradientUnits="userSpaceOnUse"><stop offset="0" stop-color="#fbb23a"/><stop offset="0.07" stop-color="#fbb03b"/><stop offset="1" stop-color="#fcee21"/></linearGradient><symbol id="manchkvala" data-name="manchkvala" viewBox="0 0 3.63 6.67"><path class="cls-2" d="M1.39,1.3c.05,0,.87-.78.79-.89S1.56.58,1.12.94.19,2,.27,2.06,1.06,1.59,1.39,1.3Z"/><path class="cls-3" d="M1.85.38A.39.39,0,0,1,2,.56s0,0,0,0H2A.37.37,0,0,1,1.82.41a0,0,0,0,1,0,0S1.84.37,1.85.38Z"/><path class="cls-3" d="M1.68.54a.41.41,0,0,1,.18.19,0,0,0,0,1,0,0s0,0,0,0A.39.39,0,0,1,1.64.57s0,0,0,0S1.67.54,1.68.54Z"/><path class="cls-4" d="M.77.67a8.22,8.22,0,0,1,1.7,2.26,8.21,8.21,0,0,1,.9,3.49"/><path class="cls-3" d="M.32,1.7a.37.37,0,0,1,.18.19,0,0,0,0,1,0,0h0a.41.41,0,0,1-.18-.19s0,0,0,0Z"/><path class="cls-3" d="M.55,1.53a.37.37,0,0,1,.18.19,0,0,0,0,1,0,0h0a.41.41,0,0,1-.18-.19s0,0,0,0Z"/><path class="cls-5" d="M.27,2.06A2.89,2.89,0,0,1,1,1,2.85,2.85,0,0,1,2.18.41.31.31,0,0,0,2.13.29C1.92-.08,1-.14.45.35A1.36,1.36,0,0,0,.16,2Z"/><path class="cls-3" d="M.78,1.34A.37.37,0,0,1,1,1.53a0,0,0,0,1,0,0s0,0,0,0a.35.35,0,0,1-.18-.18s0,0,0,0Z"/><path class="cls-3" d="M1.49.73a.44.44,0,0,1,.19.19s0,0,0,0,0,0,0,0A.37.37,0,0,1,1.46.76a0,0,0,0,1,0,0A0,0,0,0,1,1.49.73Z"/></symbol><symbol id="New_Symbol_7" data-name="New Symbol 7" viewBox="0 0 13.93 12.16"><use width="3.62" height="6.67" transform="translate(2.28 1.3) scale(1.43)" xlink:href="#manchkvala"/><use width="3.62" height="6.67" transform="matrix(-1.63, 0, 0, 1.47, 12.98, 1.05)" xlink:href="#manchkvala"/><use width="3.62" height="6.67" transform="matrix(-1.41, -0.54, -0.33, 0.85, 14.34, 6.32)" xlink:href="#manchkvala"/><use width="3.62" height="6.67" transform="matrix(-1.45, 0.74, 0.67, 1.31, 8.02, -0.75)" xlink:href="#manchkvala"/><use width="3.62" height="6.67" transform="matrix(1.63, -0.41, 0.35, 1.42, -0.45, 2.91)" xlink:href="#manchkvala"/><path class="cls-1" d="M6.69,9.54a2,2,0,0,1-.06.94C6.31,11.42,5.3,11.7,5.38,12s.68.12,1.79.13c1.51,0,2.31.16,2.36,0s-1.34-.57-1.64-1.62a1.66,1.66,0,0,1,0-.73Z"/></symbol></defs><g id="Layer_2" data-name="Layer 2"><g id="Layer_1-2" data-name="Layer 1"><use width="13.93" height="12.16" transform="scale(2.44)" xlink:href="#New_Symbol_7"/></g></g></svg>