<svg xmlns="http://www.w3.org/2000/svg" xmlns:xlink="http://www.w3.org/1999/xlink" viewBox="0 0 69.34 130.47"><defs><style>.cls-1{fill:#39cf4a;stroke:#6bdb77;stroke-width:0.05px;}.cls-1,.cls-2,.cls-3,.cls-4{stroke-miterlimit:10;}.cls-2{fill:#39b54a;stroke:#39b54a;stroke-width:0.08px;}.cls-3{fill:#eeff15;}.cls-3,.cls-4{stroke:#000;stroke-width:0.01px;}.cls-4{fill:#f0ff85;}</style><symbol id="yvavili" data-name="yvavili" viewBox="0 0 44.19 82.19"><path class="cls-1" d="M21.28,27.06c.15,0-.28,2.64-.77,6.62s-1,9.36-1.14,14.89a149.25,149.25,0,0,0,.41,15.77c.37,4.56.86,8,1,9.18.6,4.64.74,8.48,0,8.64S18.63,78.63,18,73.88c-.16-1.19-.55-4.73-.76-9.38a134.91,134.91,0,0,1,.28-16A123.86,123.86,0,0,1,19.6,33.54C20.41,29.57,21.15,27,21.28,27.06Z"/><path class="cls-2" d="M35.35,53.24c-.67-.83-2.49-.56-4.59-.07a58.35,58.35,0,0,0-6.4,2,10.91,10.91,0,0,0-4.12,2.48,3.41,3.41,0,0,0-1,3A3,3,0,0,0,21.53,63a9.16,9.16,0,0,0,5.64-.61,17.74,17.74,0,0,0,6.52-4.58C35.32,55.9,36,54.06,35.35,53.24Z"/><path class="cls-3" d="M14.84,17.53c.7,3.23,2,9.14,6.38,10.87,4.91,1.93,10.52-2.57,13.12-4.65a26.46,26.46,0,0,0,8.19-11.61L15.94,3.58A25.17,25.17,0,0,0,14.84,17.53Z"/><path class="cls-4" d="M42.48,12.34c1.07-1,2.13-2.92,1.54-3.76s-2.29.29-3.73-.74C39,6.93,39.67,5.6,38.52,4.76c-1.51-1.09-3.22.75-5.4-.28-1.56-.73-1.23-1.91-2.71-2.42-1.89-.65-3,1.11-4.77.41C24.07,1.86,24.16.12,23,0s-1.72,2-3.71,2.36c-1.67.33-2.6-.89-3.19-.4-.89.74,0,4.67,2.52,6.15,1.88,1.1,3-.1,5.5,1,2.14,1,1.83,2.14,3.79,2.86,2.25.83,3-.59,5.77,0,2.64.54,2.91,2,5.17,1.95A5.51,5.51,0,0,0,42.48,12.34Z"/><path class="cls-2" d="M.94,48c-.51.17-.81.83-.9,1.9a10.28,10.28,0,0,0,.79,4,16.91,16.91,0,0,0,7.1,8.18A11.12,11.12,0,0,0,15.5,63.7a3.91,3.91,0,0,0,2-1,2.12,2.12,0,0,0,.68-1.43,2.67,2.67,0,0,0-.4-1.55,5.74,5.74,0,0,0-1.26-1.41,34,34,0,0,0-4.72-3,39.48,39.48,0,0,1-6.41-4.52C3.41,49.27,2,47.64.94,48Z"/></symbol></defs><g id="Layer_2" data-name="Layer 2"><g id="Layer_1-2" data-name="Layer 1"><use width="44.19" height="82.18" transform="translate(-0.82 0) scale(1.59)" xlink:href="#yvavili"/></g></g></svg>