<svg xmlns="http://www.w3.org/2000/svg" viewBox="0 0 1919.83 73.65"><defs><style>.cls-1{fill:#8cbc4b;}.cls-2{fill:#005dff;}.cls-3{fill:#009fff;stroke:#009fff;stroke-miterlimit:10;}</style></defs><g id="Layer_2" data-name="Layer 2"><g id="Layer_1-2" data-name="Layer 1"><path class="cls-1" d="M1919.82,28.51a289.94,289.94,0,0,0-46-8.18c-31.65-3-56.79-.33-83.69,2.81-26.33,3.07-45.72,6.94-49.49,7.68C1668.42,45.13,1592,60.28,1518.36,58.09c-50.78-1.5-98.15-12.29-155.32-25.93l-9.53-2.29c-12.88-3.08-26.28-6.28-40.34-9.54-39.69-9.19-54.84-13.48-82.8-15.37C1181.63,1.67,1137,8.67,1108,13.35c-29.33,4.74-50.46,9.91-55.8,11.19-79.6,19-227.67,25.61-379.76,9.78-88.11-9.17-109.75-18.81-152-25.53-28.53-4.55-50-5.61-69.44-6.63C324.77-4.47,227,6.27,227,6.27a1229.16,1229.16,0,0,0-227,47Q0,64.63,0,76H1919.83Q1919.82,52.25,1919.82,28.51Z"/></g></g></svg>