<svg xmlns="http://www.w3.org/2000/svg" viewBox="0 0 1920.91 4197.13"><defs><style>.cls-1{fill:#8cbc4b;}.cls-2{opacity:0.02;}</style></defs><g id="Layer_2" data-name="Layer 2"><g id="Layer_1-2" data-name="Layer 1"><path class="cls-1" d="M.64,0C.8,172.6,1,2787.91,1.13,4181.87H1920.54c0-1394-.06-4009.27-.09-4181.87Z"/><path class="cls-2" d="M1920.62,88.77a184,184,0,0,1-52,37.82C1772,173.11,1679.83,84.9,1551.25,84.71c-128-.18-163,19.87-295.8,27-231.4,12.45-242.17-42.12-429.52-31.07C632.24,92.09,603,152.83,391,182,226.52,204.58,88.75,189.35.62,173.86V4183.93h1920Z"/><path class="cls-2" d="M1920,77a184,184,0,0,1-52,37.82c-96.63,46.52-188.83-41.69-317.41-41.88-128-.18-163,19.87-295.8,27-231.4,12.45-242.17-42.12-429.52-31.07-193.69,11.43-223,72.17-434.91,101.3C225.9,192.81,88.13,177.58,0,162.09.17,281,.34,3230.16.51,4190.7H1919.92C1920,3001.09,1920,224.29,1920,77Z"/><path class="cls-2" d="M1920.91,69.13A183.59,183.59,0,0,1,1869,107c-96.63,46.53-188.84-41.69-317.41-41.87-128-.18-163,19.87-295.8,27C1024.35,104.54,1013.57,50,826.23,61c-193.7,11.42-223,72.16-434.92,101.3-164.5,22.61-302.26,7.38-390.4-8.11C1,276,1.17,3213.27,1.3,4197.13H1920.71C1920.78,2984.2,1920.85,219.31,1920.91,69.13Z"/></g></g></svg>