<svg xmlns="http://www.w3.org/2000/svg" xmlns:xlink="http://www.w3.org/1999/xlink" viewBox="0 0 92.62 92.58"><defs><style>.cls-1{fill:#69421d;}.cls-1,.cls-12,.cls-18,.cls-19,.cls-21,.cls-5{stroke:#000;}.cls-1,.cls-12,.cls-13,.cls-14,.cls-15,.cls-16,.cls-17,.cls-18,.cls-19,.cls-21,.cls-5,.cls-6{stroke-miterlimit:10;}.cls-1,.cls-10,.cls-13,.cls-14,.cls-15,.cls-16,.cls-17,.cls-8{stroke-width:0.25px;}.cls-2{fill:#00ad00;}.cls-3{fill:#8c6239;}.cls-4{fill:#f6861f;}.cls-10,.cls-4,.cls-7,.cls-8{stroke:#8c6239;stroke-linejoin:round;}.cls-10,.cls-15,.cls-16,.cls-17,.cls-4,.cls-7,.cls-8{stroke-linecap:round;}.cls-5{fill:#c69c6d;}.cls-12,.cls-5{stroke-width:0.1px;}.cls-13,.cls-16,.cls-6,.cls-7{fill:none;}.cls-13,.cls-14,.cls-16,.cls-6{stroke:#603813;}.cls-6{stroke-width:0.5px;}.cls-8{fill:#623000;}.cls-9{fill:#342d14;}.cls-10{fill:#773a26;}.cls-11{fill:#754c24;}.cls-12,.cls-14,.cls-15{fill:#f15a24;}.cls-15,.cls-17{stroke:#42210b;}.cls-17{opacity:0.1;}.cls-18,.cls-20{fill:#d22026;}.cls-18,.cls-19,.cls-21{stroke-width:0.05px;}.cls-19{fill:#666;}.cls-21{fill:#ccc;}</style><symbol id="Deleted_Symbol" data-name="Deleted Symbol" viewBox="0 0 106.8 8.75"><polyline class="cls-1" points="3.13 0.13 103.88 0.13 103.88 8.62 3.13 8.62"/><path class="cls-1" d="M106.67,4.18c.06,2.05-1.13,4.43-2.69,4.44s-2.71-2.22-2.73-4.2S102.43.11,104,.13,106.61,2.3,106.67,4.18Z"/><path class="cls-1" d="M3.13,8.62a4.54,4.54,0,0,1-3-4.06,4.57,4.57,0,0,1,3-4.44"/></symbol><symbol id="New_Symbol_3" data-name="New Symbol 3" viewBox="0 0 106.8 8.75"><use width="106.8" height="8.75" xlink:href="#Deleted_Symbol"/></symbol><symbol id="New_Symbol_1" data-name="New Symbol 1" viewBox="0 0 33.18 17.93"><path class="cls-2" d="M10.59,17.93A13.29,13.29,0,0,0,8.05,8.5c-3.16-4.23-8.29-6-8-6.29s6.75,1.44,10.3,5.87a10.85,10.85,0,0,1,2.4,7.75A14.13,14.13,0,0,0,13,8C11.73,3.15,8.08.22,8.48,0s5.14,2.64,6.77,7.13c1.57,4.33-.47,8.21-.14,8.27s.54-4,3.53-8.06S25.77,1.13,26,1.27,22.58,3.79,19.91,8a19.46,19.46,0,0,0-2.82,7.23,17.43,17.43,0,0,1,6.35-6.39C27.85,6.17,33,5.37,33.18,5.67s-4.36,1.39-8.61,4.5a20.64,20.64,0,0,0-6.35,7.44Z"/></symbol></defs><g id="Layer_2" data-name="Layer 2"><g id="Layer_1-2" data-name="Layer 1"><rect class="cls-3" x="14.14" y="49.06" width="61.18" height="39.33"/><use width="106.8" height="8.75" transform="translate(12.45 49.06) scale(0.61 0.64)" xlink:href="#New_Symbol_3"/><use width="106.8" height="8.75" transform="translate(12.31 54.68) scale(0.61 0.64)" xlink:href="#New_Symbol_3"/><use width="106.8" height="8.75" transform="translate(12.31 60.33) scale(0.61 0.64)" xlink:href="#New_Symbol_3"/><use width="106.8" height="8.75" transform="translate(12.31 66.08) scale(0.61 0.64)" xlink:href="#New_Symbol_3"/><use width="106.8" height="8.75" transform="translate(12.38 71.58) scale(0.61 0.64)" xlink:href="#New_Symbol_3"/><use width="106.8" height="8.75" transform="translate(12.24 77.2) scale(0.61 0.64)" xlink:href="#New_Symbol_3"/><use width="106.8" height="8.75" transform="translate(12.24 82.85) scale(0.61 0.64)" xlink:href="#Deleted_Symbol"/><rect class="cls-4" x="21.24" y="60.33" width="13.84" height="16.86"/><path class="cls-5" d="M21.24,60.33v8.43c2.36-.45,6.74-6.13,6.92-8.43.32,2.38,4.5,8,6.91,8.68V60.33Z"/><path class="cls-6" d="M28.16,60.33V77.19"/><line class="cls-6" x1="21.24" y1="68.88" x2="35.07" y2="69.13"/><rect class="cls-7" x="21.24" y="60.33" width="13.84" height="16.86"/><path class="cls-8" d="M55.43,65.09V85.16H69.16V65.09C69.13,56.94,55.45,57,55.43,65.09Z"/><path class="cls-9" d="M68.48,73.17c0-1-1.75-1-1.73,0S68.5,74.19,68.48,73.17Z"/><rect class="cls-10" x="50.99" y="85.41" width="21.49" height="0.62"/><rect class="cls-11" x="7.91" y="88.39" width="73.79" height="3.02" rx="0.63"/><path class="cls-12" d="M79.23,49.31c-1.08,1.49-5.83,1.6-6.82.57-1.09,1.14-6.08,1-6.9-.05-1,1.18-6,1.21-6.88.12-1.4,1.56-6,1.14-6.9-.05-1.18,1.33-5.89,1.17-6.9-.07-1,1.57-5.47,2.09-7,.48-.83,1-5.64,1.2-6.85-.25-1,1.13-5.8,1.1-6.83-.2-1,1.08-5.9,1-6.94-.2l-.11.06h0c-.94,1-5.77,1-6.84-.24.57-2.64,1.15-5.28,1.72-7.92H77.55Z"/><path class="cls-12" d="M78.37,44.23c-1.15,1.56-5.76,1.56-6.64.57l-.11.06c-1,1.11-5.93.85-6.6-.11l-.11.07h0c-1,1.15-5.73,1.1-6.61.06l-.16.12h0c-1.38,1.45-5.76,1-6.56-.17l-.1.07h0c-1.11,1.27-5.75,1.05-6.62-.15-1,1.62-5.41,2.06-6.81.49-1,1-5.46,1.17-6.67-.25l0,0h0c-.74,1-5.37,1.15-6.43-.08h0l-.2-.14c-1,1.08-5.74,1-6.76-.2l-.07,0h0c-1.37,1.13-5.52,1-6.71-.23.57-2.64,1.12-5.28,1.67-7.91H76.74C77.28,39.07,77.83,41.65,78.37,44.23Z"/><path class="cls-12" d="M77.37,39.16h0c-1.12,1.51-5.45,1.59-6.45.56,0,0,0,0,0,0-1,1.13-5.73.93-6.48-.07l0,0c-1,1.16-5.52,1.19-6.49.1-1.32,1.53-5.66,1.15-6.53-.05-1.13,1.29-5.49,1.21-6.53-.08-.89,1.55-5.19,2.1-6.6.49-.92,1-5.21,1.23-6.48-.24h0c-.89,1-5.3,1.21-6.48-.21-1.35,1.26-5.67.89-6.57-.19h0c-.89,1-5.5,1.06-6.55-.2.53-2.64,1.08-5.28,1.62-7.92H75.78C76.3,34,76.84,36.58,77.37,39.16Z"/><path class="cls-12" d="M76.44,34.08a0,0,0,0,1,0,0h0c-1.1,1.53-5.33,1.56-6.25.56-1.09,1.16-5.49,1-6.34,0,0,0,0,0,0,0-1,1.17-5.35,1.18-6.3.1-1.29,1.53-5.48,1.15-6.34-.05-1.12,1.31-5.35,1.19-6.34-.08h0c-.89,1.57-5,2.11-6.42.49h0c-.82,1-5.14,1.19-6.28-.25h0c-1.3,1.21-5.07,1-6.13-.11l-.15-.11c-.95,1.09-5.38,1-6.37-.2-.95,1.07-5.33,1.08-6.37-.17h0q.78-4,1.58-7.92H74.9Q75.68,30.21,76.44,34.08Z"/><path class="cls-12" d="M75.45,29c-1.07,1.53-5.07,1.61-6.07.57,0,0,0,0,0,0-1,1.13-5.3,1-6.11-.07-.91,1.2-5.25,1.22-6.13.13l-.09.07c-1.28,1.49-5.23,1-6-.11l-.08.05c-1,1.29-5.22,1.07-6.06-.14-.94,1.65-5,2-6.21.48l-.08,0h0c-.85,1-5,1.07-6-.29-1,1.17-5.16,1-6.08-.2h0c-.93,1.08-5.2,1-6.17-.2-1,1.15-5.3,1-6.18-.18l1.53-7.92H74Z"/><path class="cls-12" d="M74.56,23.94c-1,1.5-5,1.61-5.89.57-1,1.15-5.14,1-6-.05h0c-.94,1.17-5,1.22-5.94.11,0,0,0,0,0,0h0c-1.22,1.49-5.09,1.11-5.91-.09l0,0c-.77,1.11-4.84,1.33-5.94-.1-.89,1.57-4.67,2.11-6,.48h0C38,26,34,26.14,32.9,24.7c0,0,0,0,0,0-.8,1-4.84,1.16-5.89-.22-.92,1.08-5,1-6-.21-.91,1.07-5,1.09-6-.18q.75-4,1.48-7.92H73.11C73.58,18.66,74.1,21.49,74.56,23.94Z"/><path class="cls-12" d="M73.67,19.21c-1,1.47-4.67,1.63-5.7.58-1.07,1.1-4.87,1-5.78-.05h0c-.9,1.17-4.84,1.24-5.77.13-.87,1.21-4.58,1.48-5.78-.05h0c-1,1.3-4.84,1.18-5.78-.09-.84,1.52-4.43,2.16-5.85.48-.82,1-4.65,1.18-5.74-.24-1,1.14-4.68,1.12-5.72-.19-1,1-4.76,1.08-5.82-.22l0,0h0c-1,1.05-4.83,1-5.79-.21h0c.29-1.63.59-3.25.88-4.88,18.54.13,37.58.17,56.11.28C73.14,16.26,73.41,17.73,73.67,19.21Z"/><path class="cls-13" d="M44.83,14.64V49.82"/><path class="cls-14" d="M37.79,50.33c.49-11.82,1-23.89,1.43-35.71"/><path class="cls-14" d="M31,50.09c.88-11.76,1.77-23.74,2.66-35.5"/><path class="cls-14" d="M24.4,50c1.21-11.74,2.45-23.7,3.66-35.44"/><path class="cls-14" d="M50.43,14.67c.39,11.68.82,23.59,1.22,35.28"/><path class="cls-14" d="M56,14.69c.81,11.71,1.65,23.66,2.47,35.38"/><path class="cls-14" d="M65.47,49.86c-1.28-11.65-2.56-23.5-3.83-35.14"/><path class="cls-14" d="M72.34,49.91c-.6-4.23-1.33-9.2-1.94-13.43h0L67.24,14.74"/><path class="cls-15" d="M16.8,14.5l28,.14C35.84,14.6,25.79,14.57,16.8,14.5Z"/><path class="cls-15" d="M72.83,14.78l-11.19-.06Z"/><line class="cls-15" x1="72.83" y1="14.78" x2="79.23" y2="49.31"/><line class="cls-15" x1="61.64" y1="14.72" x2="44.83" y2="14.64"/><line class="cls-16" x1="22.42" y1="14.65" x2="17.2" y2="49.76"/><line class="cls-16" x1="16.77" y1="14.51" x2="10.25" y2="49.49"/><path class="cls-17" d="M79.21,49.37c-1.07,1.5-5.83,1.6-6.82.57-1.08,1.15-6.08,1-6.89,0-1,1.19-6,1.22-6.89.13-1.39,1.55-6,1.13-6.9-.05-1.18,1.33-5.88,1.17-6.89-.08-1,1.58-5.48,2.09-7,.48-.82,1-5.63,1.21-6.84-.24-1,1.13-5.81,1.1-6.84-.2-1,1.08-5.9,1-6.94-.2l-.11.05h0c-.93,1-5.76,1-6.84-.24l.94-5.06,0,0c.25-1.07.75-3.95,1-5l-.05,0c.29-1.33.73-3.7,1-5.06l0,0c.33-1.61.67-3.48,1-5.1L72.88,15c.56,3,1.09,6,1.67,9a.1.1,0,0,0,0,0c.33,1.68.65,3.35,1,5l0,0q.5,2.5,1,5h0l-.08.07,1,5h0l0,0c.35,1.68.7,3.35,1.06,5a1.2,1.2,0,0,1-.21.17C78.51,46.1,78.86,47.74,79.21,49.37Z"/><rect class="cls-18" x="23.66" y="7.11" width="7.44" height="1.37"/><line class="cls-18" x1="27.39" y1="7.11" x2="27.39" y2="8.48"/><path class="cls-19" d="M32.93,20.3C33.06,16,21.86,16,22,20.3,21.86,24.65,33.07,24.65,32.93,20.3Z"/><path class="cls-19" d="M32.93,19.76c.13-4.35-11.07-4.35-10.93,0C21.86,24.11,33.07,24.11,32.93,19.76Z"/><path class="cls-20" d="M23.66,21V1.63h7.45V21A14.47,14.47,0,0,1,23.66,21Z"/><rect class="cls-18" x="23.66" y="1.63" width="7.44" height="1.37"/><line class="cls-18" x1="27.39" y1="1.63" x2="27.39" y2="3"/><rect class="cls-18" x="23.66" y="4.37" width="7.44" height="1.37"/><line class="cls-18" x1="27.39" y1="4.37" x2="27.39" y2="5.74"/><rect class="cls-18" x="23.66" y="3" width="7.44" height="1.37"/><rect class="cls-18" x="25.84" y="3" width="3.14" height="1.37"/><rect class="cls-18" x="23.66" y="5.74" width="7.44" height="1.37"/><rect class="cls-18" x="25.84" y="5.74" width="3.14" height="1.37"/><rect class="cls-18" x="23.66" y="7.11" width="7.44" height="1.37"/><line class="cls-18" x1="27.39" y1="7.11" x2="27.39" y2="8.48"/><rect class="cls-18" x="23.66" y="9.85" width="7.44" height="1.37"/><line class="cls-18" x1="27.39" y1="9.85" x2="27.39" y2="11.22"/><rect class="cls-18" x="23.66" y="8.48" width="7.44" height="1.37"/><rect class="cls-18" x="25.84" y="8.48" width="3.14" height="1.37"/><rect class="cls-18" x="23.66" y="11.22" width="7.44" height="1.37"/><rect class="cls-18" x="25.84" y="11.22" width="3.14" height="1.37"/><rect class="cls-18" x="23.66" y="12.58" width="7.44" height="1.37"/><line class="cls-18" x1="27.39" y1="12.58" x2="27.39" y2="13.96"/><rect class="cls-18" x="23.66" y="15.32" width="7.44" height="1.37"/><line class="cls-18" x1="27.39" y1="15.32" x2="27.39" y2="16.69"/><rect class="cls-18" x="23.66" y="13.96" width="7.44" height="1.37"/><rect class="cls-18" x="25.84" y="13.96" width="3.14" height="1.37"/><rect class="cls-18" x="23.66" y="16.69" width="7.44" height="1.37"/><rect class="cls-18" x="25.84" y="16.69" width="3.14" height="1.37"/><rect class="cls-18" x="23.66" y="18.06" width="7.44" height="1.37"/><line class="cls-18" x1="27.39" y1="18.06" x2="27.39" y2="19.43"/><rect class="cls-18" x="23.66" y="19.43" width="7.44" height="1.37"/><rect class="cls-18" x="25.84" y="19.43" width="3.14" height="1.37"/><rect class="cls-21" x="22.57" y="0.03" width="9.63" height="1.61"/><use width="33.18" height="17.93" transform="translate(68.4 79.12) scale(0.73)" xlink:href="#New_Symbol_1"/><use width="33.18" height="17.93" transform="translate(0 79.49) scale(0.73)" xlink:href="#New_Symbol_1"/></g></g></svg>