<svg xmlns="http://www.w3.org/2000/svg" viewBox="0 0 540 360"><defs><style>.cls-1{fill:#a7fffd;}.cls-2{fill:#83e855;}.cls-3{opacity:0.08;}.cls-4{fill:#00b3ed;}</style></defs><g id="Layer_2" data-name="Layer 2"><g id="Layer_1-2" data-name="Layer 1"><path class="cls-1" d="M341.36,95.14l-30.25,46.39L273.46,106,233,137.26l0,0L198.64,95.14,270,0Z"/><path class="cls-2" d="M341.36,95.14l-30.25,46.39L273.46,106,233,137.26l0,0-15.9-19.51L198.64,95.14,0,360H540Z"/><polygon class="cls-3" points="540 360 270 0 91.78 360 540 360"/><path class="cls-4" d="M175.6,241.13c16.65-24.7,6.53-43.25,15.08-73.14,3.5-12.22,11-29.35,29-48.24l-4.46-5.46c-27.33,28.83-34.65,53.05-36.12,70.13-1.39,16.27,1.75,22.6-3.86,38.06-8.88,24.47-24.14,25.7-32.71,49.18-.21.6-.42,1.18-.61,1.75a71.06,71.06,0,0,1,7.86,4.81,50.93,50.93,0,0,1,5.55-14.34C162.5,251.12,166.77,254.23,175.6,241.13Z"/><path class="cls-4" d="M138.4,314.27h0c-.21.7-.44,1.41-.71,2.15-4.38,12.22-15.35,28.5-45.5,43.58h18.35c22.42-13.73,30.86-27.7,34.51-37.57,6.17-16.66,1.44-29.12,4.72-44.21a71.06,71.06,0,0,0-7.86-4.81C135.8,291.8,143.34,298.22,138.4,314.27Z"/></g></g></svg>