<svg xmlns="http://www.w3.org/2000/svg" viewBox="0 0 23.71 50.66"><defs><style>.cls-1{fill:#70250e;}.cls-1,.cls-2,.cls-3,.cls-4,.cls-5{stroke:#000;stroke-miterlimit:10;stroke-width:0.25px;}.cls-2{fill:#cb9831;}.cls-3{fill:#d9d99e;}.cls-4{fill:#c78069;}.cls-5{fill:#878787;}</style></defs><g id="Layer_2" data-name="Layer 2"><g id="Layer_1-2" data-name="Layer 1"><polyline class="cls-1" points="4.63 39.17 4.63 17.07 23.59 17.07 23.59 39.17"/><ellipse class="cls-2" cx="14.11" cy="17.05" rx="9.48" ry="2.12"/><path class="cls-1" d="M4.63,39.17c0,.66,4.25,1.19,9.48,1.19s9.48-.53,9.48-1.19"/><rect class="cls-3" x="11.53" y="1.23" width="5.16" height="16.74"/><polyline class="cls-2" points="11.53 1.23 15.09 0.14 16.69 1.23"/><polygon class="cls-4" points="6.04 46.23 12.7 18.19 14.81 18.74 8.16 46.78 6.04 46.23"/><path class="cls-5" d="M2,43.93A5.69,5.69,0,0,0,.47,46.25a6.05,6.05,0,0,0-.06,3.83,21.24,21.24,0,0,1,5.2-.47,21.25,21.25,0,0,1,5.52.9l1-3.28a14.24,14.24,0,0,1-5.51-.71A14,14,0,0,1,2,43.93Z"/></g></g></svg>