<svg xmlns="http://www.w3.org/2000/svg" viewBox="0 0 212.55 243.93"><defs><style>.cls-1,.cls-10,.cls-12,.cls-9{fill:#754c24;}.cls-2{fill:#42210b;}.cls-14,.cls-3,.cls-8{fill:#603813;}.cls-4{fill:#666;}.cls-10,.cls-11,.cls-17,.cls-18,.cls-19,.cls-20,.cls-21,.cls-4,.cls-5{stroke:#000;}.cls-10,.cls-11,.cls-12,.cls-14,.cls-15,.cls-17,.cls-18,.cls-19,.cls-20,.cls-21,.cls-4,.cls-5,.cls-7,.cls-8,.cls-9{stroke-miterlimit:10;}.cls-4,.cls-5{stroke-width:0.5px;}.cls-5{fill:#ed1c24;}.cls-17,.cls-6{fill:#fbb03b;}.cls-7{fill:#a67c01;}.cls-15,.cls-7,.cls-8,.cls-9{stroke:#404040;}.cls-10,.cls-11,.cls-12,.cls-14,.cls-15,.cls-17,.cls-18,.cls-19,.cls-21,.cls-7,.cls-8,.cls-9{stroke-width:0.25px;}.cls-11{fill:#ffc7ac;}.cls-12,.cls-14{stroke:#603813;}.cls-13{fill:#8c6239;}.cls-15{fill:#ffcd5d;}.cls-16{fill:#fff;}.cls-18,.cls-20{fill:none;}.cls-20{stroke-width:0.1px;}.cls-21{fill:#fbe1b1;}</style></defs><g id="Layer_2" data-name="Layer 2"><g id="Layer_1-2" data-name="Layer 1"><path class="cls-1" d="M43.23,49.77,43,49.64c0-.4.08-.8.13-1.21C43.14,48.88,43.19,49.33,43.23,49.77Z"/><path class="cls-1" d="M85.44,62.9h-.21a2.32,2.32,0,0,1-.06-.38Z"/><path class="cls-1" d="M43.23,49.77,43,49.64c0-.4.08-.8.13-1.21C43.14,48.88,43.19,49.33,43.23,49.77Z"/><path class="cls-1" d="M92.35,79l-.57,0h0c0-.09,0-.18,0-.27a.5.5,0,0,0,0-.12,0,0,0,0,1,0,0C91.92,78.73,92.14,78.85,92.35,79Z"/><path class="cls-1" d="M37.54,84.15l-.21,0a.13.13,0,0,0,0-.06Z"/><path class="cls-1" d="M75.7,38.2h0Z"/><path class="cls-1" d="M161.9,54.31l-.21.41a4.74,4.74,0,0,1-.49-.29Z"/><path class="cls-1" d="M92.35,79l-.57,0h0c0-.09,0-.18,0-.27s0-.08,0-.11C91.92,78.73,92.14,78.85,92.35,79Z"/><path class="cls-1" d="M130.66,26.51h0v-.05Z"/><path class="cls-1" d="M45.9,35.37l-.31-.21.26-.16C45.86,35.1,45.88,35.23,45.9,35.37Z"/><path class="cls-1" d="M40.82,32.82c-.38-.18-.75-.37-1.14-.58-1-6.69-3.34-15.33,1.17-21C37.08,17,39.7,26.17,40.82,32.82Z"/><path class="cls-1" d="M91.48,46.55a42.34,42.34,0,0,1-11.35-5,13.85,13.85,0,0,1,4.13-.41c1.18,0,1.18,1.18,1.18,2.35A4.77,4.77,0,0,1,91.48,46.55Z"/><path class="cls-1" d="M158.31,54.92C152,56,145.48,57.07,139.74,59.84a3.27,3.27,0,0,1,2.09-2.24c4.7-2.35,8.81-1.76,12.92-4.11A3.42,3.42,0,0,1,158.31,54.92Z"/><path class="cls-1" d="M157.32,36.32c0,1.7-.58,3.25-1.39,3.66-4.7,1.76-2.94,6.46-6.47,8.22a5.17,5.17,0,0,1-2.81.15C149.7,41.23,153.09,39.53,157.32,36.32Z"/><path class="cls-1" d="M149.46,81.1a4,4,0,0,1-.53,1.81,1.39,1.39,0,0,1-.15-.19,123.79,123.79,0,0,1-11.62,4.33,10.13,10.13,0,0,1,.56-3C142.42,85.21,145.35,81.68,149.46,81.1Z"/><path class="cls-1" d="M79,57.44c-.76-.39-1.56-.74-2.37-1.07C67,60.23,59.32,58,52,54.45a3.79,3.79,0,0,1,4-1c7,3.52,13.51,2.94,21.14,1.76C78.61,54.9,79,56,79,57.44Z"/><path class="cls-1" d="M61.31,79.7a6,6,0,0,1-3.48-1c-1.76-1.18-2.94-5.29-4.7-5.29-5.29-.59-4.7-5.29-7.64-8.22-.62-.63-.41-1.91.27-3.15C49.51,72.38,56.07,73.87,61.31,79.7Z"/><path class="cls-1" d="M129.93,58.61c.22-4.31-1.82-9.36-1.15-13.93h1.3a15.7,15.7,0,0,0,1.76,7C132.37,53.82,132.42,57.77,129.93,58.61Z"/><path class="cls-2" d="M78.62,179.17a13.59,13.59,0,0,1-1.71.69c.21-.11.43-.2.65-.3l.46-.18Z"/><path class="cls-1" d="M107.76,109.29c-2.23-1.67-6.57-1.76-9.52-2.77,1.62.78.17,2.86.71,4,1.76,3.52,4.11,5.28,3.52,8.81,0,1.17,2.35,2.35,2.94,1.76,2.35-5.29,7-10,5.87-14.68C111.28,104.59,108.93,110.47,107.76,109.29Z"/><path class="cls-3" d="M98.24,106.52a2.58,2.58,0,0,0-.47-.16Z"/><path class="cls-1" d="M107.17,89.91c1.35.67,2.7,0,3.93-.15.65-2.08,1.29-5.89,1.81-12.7C108.61,79.21,109.19,85.86,107.17,89.91Z"/><path class="cls-1" d="M95.69,76.15C94.08,81,92.51,87.3,98,88.52c0-.19,0-.38,0-.56A81,81,0,0,0,95.69,76.15Z"/><path class="cls-1" d="M86.86,97.72h0c-.62-.63-1.28-1.28-2-1.94-3.31-2.88-7.62-4.7-12.38-6-.43,1.21-.17,2.51.61,2.51C76.63,92.84,77.8,94,79,97c3.87-1.67,5.14,2.42,8.72,1.41-.26-.22-.53-.43-.83-.64A0,0,0,0,1,86.86,97.72Z"/><path class="cls-1" d="M57.83,88.73c.59.59-1.17.59-.59,1.18,4.7,1.76,10-.59,14.69,2.35a17.51,17.51,0,0,0-.16-2.7q-2.7-.7-5.53-1.28l-.18-.47a19.8,19.8,0,0,0-5.68-2c.27.51.54,1,.79,1.58-3.54-.62-7.1-1.2-10.52-1.92,0,.36.13.71.13.95C52.54,88.15,54.89,88.73,57.83,88.73Z"/><path class="cls-3" d="M61.31,79.7a6,6,0,0,1-3.48-1c-1.76-1.18-2.94-5.29-4.7-5.29-5.29-.59-4.7-5.29-7.64-8.22-.62-.63-.41-1.91.27-3.15a50,50,0,0,1-2.53-12.32L43,49.64c-2.4,24.24,10.71,23.83,17.4,36.13a19.8,19.8,0,0,1,5.68,2A24.35,24.35,0,0,0,61.31,79.7Z"/><path class="cls-1" d="M125.33,69.84a40.6,40.6,0,0,1,11.38-3.08,1.57,1.57,0,0,1,.42-.94c-2.94-1.76-4.7,1.77-7.64,1.18.59,0,1.18-.59.59-1.18h-1.76c0,2.88-3.93,1.83-5.2,4.53.73-.19,1.45-.38,2.16-.61Z"/><path class="cls-1" d="M127.14,91.67v1.76a2.74,2.74,0,0,0-3.6,2.17l.08-.1h0c5.56-3.86,10.49-.78,15.51,2.94C137.51,92.84,132.58,92.76,127.14,91.67Z"/><path class="cls-3" d="M177.57,73.23c9.48,1.74,19.63,5.12,26.29-1.92-6.59,4.72-16.26,2-25.41,0a95.56,95.56,0,0,0,3.22-9.29c10.66-.85,21.44-.4,30.88,2-9-3.54-19.64-4.41-30.28-3.88.54-1.69,1.11-3.35,1.75-4.93l0,.16s.33-.06.91-.12a10.49,10.49,0,0,1,2.45.12c2.05.3,4.7,1.42,7.52,2.14a12.26,12.26,0,0,0,4.28.39,5,5,0,0,0,3.36-1.67,3.55,3.55,0,0,0,.83-2.5,2.71,2.71,0,0,0-.17-.73c-.08-.15-.12-.23-.15-.23a5.92,5.92,0,0,1,.12,1,3.43,3.43,0,0,1-.93,2.25,4.63,4.63,0,0,1-3.12,1.34,11.85,11.85,0,0,1-4-.53c-2.69-.8-5.32-2-7.53-2.42a11.28,11.28,0,0,0-2.7-.22l-.46,0c2-4.51,4.65-8.31,9.23-10.22C186,45.62,183,52.77,180.35,60.26c-4.12.27-8.22.73-12.19,1.33a32,32,0,0,1,9.17-2.67c-7.68-.33-11.58,1.14-14,3.46q-1.53.27-3,.57c-8.31.17-18.33-.28-27.05,1.18a28.64,28.64,0,0,1,6.51-4.29,3.27,3.27,0,0,1,2.09-2.24c4.7-2.35,8.81-1.76,12.92-4.11a3.42,3.42,0,0,1,3.56,1.43l2.89-.49.7-.12c9-1.6,17.45-3.81,22.64-11.64-6.6,5.95-13.66,7.68-21,8.59A38.49,38.49,0,0,1,167,46.33l.32-.37c.93-2.77,3.67-4.44,5-7.16,0-.47,1.5-.18,2.71,0l1.11-.89c5.43-1.83,12.33.19,17.53-2.28,3.81-2.59,8.43-8.63,13.3-6-6.15-4-11,5.95-16.87,6.52-3.81-.24-8.21-.51-12.13.3l.46-.35c1.82-5.46,4.77-11.49,11-11.74-6.18-1.69-10.71,5.47-12.62,10.61-1.16.68-2.29,1.39-3.37,2.14-.33-9.31,8.27-19.5,1.64-27.52,6,9-3.36,18.1-2.64,28.22a45.42,45.42,0,0,0-12.9,13.92c-3.33.33-6.7.61-10.1,1.17,3.71-13.46,11-11.62,17-22.47.49-5.41,1-10.53,7.33-9.95-5.82-3.2-9.15,4-9.52,9.18-.64.79-1.25,1.49-1.85,2.14-3.36-3.18-8.66-4.58-12.74-7.36-12.11-10.83,7-13.23-25.44-19.22C159,13.39,131,18.76,156,30a18.89,18.89,0,0,1,4.85,3.33,37.45,37.45,0,0,1-3.54,3c0,1.7-.58,3.25-1.39,3.66-4.7,1.76-2.94,6.46-6.47,8.22a5.17,5.17,0,0,1-2.81.15,52.33,52.33,0,0,0-2,5.5A38.76,38.76,0,0,0,132.85,59c.68-14.36-9.94-17.15,16.76-26.51-15.68,2.21-20.06,6.89-20.83,12.18h1.3a15.7,15.7,0,0,0,1.76,7c.53,2.09.58,6-1.91,6.88a7.83,7.83,0,0,1-3.67,6.56,32.39,32.39,0,0,1-7.87,2.3c0-.11,0-.21-.08-.32-5,.89-4.13-7.18-3.06-10.85-.34-1.1-.64-2.09-.88-3h0a21.47,21.47,0,0,1,3.72-1,14.88,14.88,0,0,0-3.87.39,11.32,11.32,0,0,1-.42-4.79c2.49-7.08,17.08-5.47,17.66-14.18-1.29,6.54-10.43,6.86-15.59,10.19,2.22-2.67,6.36-6,13.33-11.61a20,20,0,0,0,1.44-5.78h0v-.05c.65-5,.77-9.44,8.71-10.07-2.51-1.34-8.06,1.1-9.52,4.39a7.06,7.06,0,0,0-1,2.9C122.54,15.81,107.52,11.2,108.43,0c-2.83,13,15.73,17.59,20.16,27.37h0A6.68,6.68,0,0,1,127.27,31c-6.83,4.49-11.18,7.66-13.77,10.58A65.71,65.71,0,0,1,102,31.87c1.65-2.91,5.22-6.09,12.68-10.27-7.7,2.22-11.85,5-14.2,8.69-2.76-2.9-5-5.2-8.63-6.73a21.81,21.81,0,0,0,3.35-3.3c2.61-4.78,2.1-13.21,8.4-14C97,5,96,14.89,93.46,19.17a27.47,27.47,0,0,1-4.33,3.46c-4.41-1.2-10.66-1.57-20.73-.93,8.68.57,14.39,1.34,18.44,2.44-4.46,2.89-9.2,5.92-10.69,10.37-1.31-.83-2.62-1.65-4-2.44A11.59,11.59,0,0,0,71,30c-.18-.22-.36-.44-.53-.68-5-6.67-7-17.27,2.48-21.41-8.69,2.41-8.65,11.86-5.27,18.56-6.67-6.12-16.45-12-8.06-20.56C47.81,15.13,62.71,22.68,68.47,30A38.13,38.13,0,0,0,48.1,25.87c4.67,1.68,19.84,4.42,24.91,9.46a24,24,0,0,0,2.68,2.86h0a31.63,31.63,0,0,0,4.43,3.36,13.85,13.85,0,0,1,4.13-.41c1.18,0,1.18,1.18,1.18,2.35a4.77,4.77,0,0,1,6,3,40.67,40.67,0,0,0,5.29,1.12c-.06.68-.12,1.38-.18,2.09-2.21,3.2-7.94,5.1-10.37,8.56A21.58,21.58,0,0,0,77.71,53c-8-3.21-20.9-2-24.4-11-.44-2.34-.31-7.48-.84-8.45-.53,1.28-.9,7.42-.5,10C55.36,50.11,62.45,52,69.48,54,63.2,55.37,57.07,53.17,51,50.42c-.24-9.53-2.3-13.08-5.09-15.05l-.31-.21a41.48,41.48,0,0,0-4.77-2.34c-.38-.18-.75-.37-1.14-.58-3.27-1.82-6.56-5-8.75-14,.06,13.58,7.18,14.57,12.22,18.3C33.05,41.42,27,32.81,16,34.77,27.43,34.7,34.21,44,44.81,38a10.56,10.56,0,0,1,2.7,4.86c.17,2-.23,4-.24,5.85-7.57-3.54-15.11-7-22.8-4.43C31.29,44,37.21,46.58,43,49.64c0-.4.08-.8.13-1.21,0,.45.08.9.12,1.34C46.16,51.33,49.07,53,52,54.45a3.79,3.79,0,0,1,4-1c7,3.52,13.51,2.94,21.14,1.76C78.61,54.9,79,56,79,57.44a16.67,16.67,0,0,1,6.14,5.08l.27.38h-.21c-11.41.18-25,11.29-35.32,1.79C60,75.32,74.7,63.43,86.12,64a16,16,0,0,1,1.22,2.91A46.85,46.85,0,0,1,91.7,78.61a0,0,0,0,1,0,0c.21.11.43.23.64.36l-.57,0h0c0-.09,0-.18,0-.27a.5.5,0,0,0,0-.12c-8.78-4.51-24-.22-29.42-9C65.42,82.88,87,74.91,92.53,85.43c.14,3.84-.21,7.25-.14,10.75v.18c0,1,.09,2,.21,3-.19,1.43-.52,3-1.13,3-.44.06-.82-.67-1.34-1.42-.21-.3-.46-.63-.75-1a12.56,12.56,0,0,0-1.68-1.64c-3.58,1-4.85-3.08-8.72-1.41-1.18-2.94-2.35-4.12-5.88-4.7-.78,0-1-1.3-.61-2.51l-.72-.19a17.51,17.51,0,0,1,.16,2.7c-4.7-2.94-10-.59-14.69-2.35-.58-.59,1.18-.59.59-1.18-2.94,0-5.29-.58-7-2.35,0-.24-.1-.59-.13-.95A60.77,60.77,0,0,1,41,82.71a22.23,22.23,0,0,0-.14-8.81c-2.48-1.19-3.82-4.09-4.2-7.49-1.17,0-1.76-1.17-2.93-.59-.57-3.43-2.82-4.64-5.11-6.87-5.78-3.78-12.47-6.86-17.71-10.62,9.17,10.53,30.24,14.57,27,33A21.24,21.24,0,0,1,31.11,76c-2.26-3.23-2.8-9.72-3.8-12.47a24.73,24.73,0,0,0,3,15C20.58,75.33,10.21,66.05,0,65.38c10.16,2,22.08,13.74,32.55,16a10.47,10.47,0,0,0,1.17.94c1.15.64,2.36,1.23,3.62,1.78l.2.09c8.64,3.75,19.63,5.86,29.33,9-9.23,2.67-20.1,3.27-30.42,3.45l-.14,0,.24-.12C27.3,72.19,3.13,81.61,3.17,69.58c-1.68,5.35,2.77,7.06,8.83,9.3a35.22,35.22,0,0,0-5.2,3.65c-2.07,1.53-3.42,5.09-6.12,5,3,.47,8.08-6.36,12.38-8.28h0c7.25,2.69,16.31,6.4,20.12,17.63-7.52.07-14.75-4.26-19.84-8.57,5.8,8.33,16.27,11.34,27.45,11.68,2.4-3.15,8.59-.9,12.34-3,.5,1.5,2.7.87,3,2.11.86-.12,1.72-.25,2.57-.39A136.32,136.32,0,0,0,73.3,95.46c5.88,2.44,10.83,5.59,13.82,10.21v0c.44,1.56.87,3.21,1.27,4.92,2.73.77,5.31,2.92,5.86,4.56a22.46,22.46,0,0,0,7.64,14.09c-5.88,3.53-3.53,10.58,0,14.69,2.34,3.52-3.53,4.11-2.94,7.64-4.7,0-5.29-2.94-7-6.47-.49-1-1,1.27-2.12,1.74-.58,4.76-1.39,9.72-2.49,14.86-.25,1.14-.5,2.26-.76,3.37a22.68,22.68,0,0,1,4.19,4.7c1.77,2.35-1.17,3.53-1.76,5.29-1.76,5.29,6.46,6.46,6.46,11.75-3.52,0-7,1.17-9.39-.59-4.7-2.35-8.23-3.52-12.93-3.52a.44.44,0,0,1-.21-.07,37,37,0,0,0-4.68,5.28c-6.3,7.83-23,2.27-28,11,8.16-6.28,23.79-1,31.51-8.52.89-.81,1.87-1.74,2.93-2.64a14.58,14.58,0,0,1,6-3.41A23.81,23.81,0,0,0,75,188.16c-7,6.59,1.08,11.55-29.2,14,31,6.13,25.46-5.4,35.53-11.15a40.68,40.68,0,0,0,5,.74c-.41.36-.81.73-1.19,1.12-2.31,2.37-2.66,4.1-4.6,6.45-2.23,2.7-6.31,6-14.36,7.61,9.3.11,13.76-2.59,16.11-5.2,2-2.24,2.49-4.44,5.4-6.9a17.33,17.33,0,0,1,4.54-2.76c3.89.08,7.71-.05,10.69-.15,3.41-.11,6.65-.15,9.61-.19a17.56,17.56,0,0,1,5.43,3.1c2.84,2.41,3.4,4.58,5.39,6.9,2.28,2.66,6.56,5.67,15.37,6.39-7.43-2.37-11.37-5.92-13.62-8.8-1.89-2.43-2.34-4.14-4.6-6.45-.45-.46-.93-.9-1.41-1.31.77,0,1.51-.08,2.22-.13h0c11.21,5.59,4.57,17.89,36.36,11.59-27.18-2.23-23.47-6.46-27.48-12.07l.16.14c7.71,7.55,23.36,2.24,31.51,8.52-5-8.76-21.71-3.2-28-11a30,30,0,0,0-6.89-7,19.6,19.6,0,0,1-1.59-2.67c-.54-1.31-1-2.56-1.51-3.75-7.61-.19-10.23-9.92-10.78-16.54-.59-1.17-4.12-2.35-4.12-4.7.59-8.22,4.7-17.62-.58-25.25a4.41,4.41,0,0,1,2.35-1.18c2.83-5.1.2-12.93,5.28-16.64.28-1.2.61-2.4,1-3.57h0a35.29,35.29,0,0,1,1.45-3.69,32.61,32.61,0,0,1,5.1-8,2.74,2.74,0,0,1,3.6-2.17V91.67c5.44,1.09,10.37,1.17,12,6.76l.09.06c3.54,2.63,7.12,5.55,11,6.6,9.91,4,26.13,6.31,32.59-3.09-8.74,7.2-22.21,5-32.78-.39.53-4,4.72-8.19,8-9.56-4-.17-8.6,4.35-9.94,8.52a45.94,45.94,0,0,1-6.82-4.7,16.82,16.82,0,0,0-10.77-6.18,68.49,68.49,0,0,1,6.64-2.64,10.13,10.13,0,0,1,.56-3c4.7,1.18,7.63-2.35,11.74-2.93a4,4,0,0,1-.53,1.81c7.82,9.81,26.87,13.35,37.38,11.46-5.48-.88-13.56-2.18-20.74-4.94,8.3-5.16,22-1.93,30-6-9.08,2.51-23.72-1.12-32.35,5A34.74,34.74,0,0,1,158,85.58c2.32-2.08,6.44-2.76,9.75-3.59C172.54,80.65,175.47,77.37,177.57,73.23Zm-13.31-8.64a140.16,140.16,0,0,1,15.38-2.35,66.59,66.59,0,0,1-3.53,8.62c-5.65-1.12-11-1.69-15.08.29C162,68.8,162.62,66.56,164.26,64.59ZM79,36.28c1.64-5.06,6.48-7.94,10.87-11.17h0c4.4,1.74,6.43,4.14,9.41,7.52-1.22,2.95-1.71,6.44-2.1,10.64C89.77,42.56,84.27,39.58,79,36.28ZM91.74,66a34.57,34.57,0,0,0-2.3-3.8,1.51,1.51,0,0,0,.3-1c.83-2.94,6.28-4.77,8.54-7.41,4.49-9.16,1.4-14.13,2.63-19.25a70.45,70.45,0,0,0,10.76,9.59h0a7.82,7.82,0,0,0-.42.81c-1.29,2.73-1.25,5.59-.51,9.48-2.87,2.23-4.19,6-6.95,9.65A23.16,23.16,0,0,0,94,70.91,44.4,44.4,0,0,0,91.74,66Zm5.93,33.39h0a30,30,0,0,1,.07-4.82,51.72,51.72,0,0,0,.26-6C92.51,87.3,94.08,81,95.69,76.15c-.27-1-.56-2-.88-2.91,1.81-3.59,6-6,9.92-8,3.14-4.13,3.72-7.47,6.21-9.82.73,3.44,1.92,7.69,3.19,13.28A12.76,12.76,0,0,0,111,70.34c-4.2,6.39-4.19,14.56-5.81,22.12-.1.49-.21,1-.33,1.45h0a15.33,15.33,0,0,1-1,3.51l0,0a14,14,0,0,1-.7,1.4c-.67,1.17-2.12,3.69-3.5,3.46-1.06-.19-1.59-1.93-1.89-3Zm7.74,21.7c-.59.59-2.94-.59-2.94-1.76.59-3.53-1.76-5.29-3.52-8.81-.54-1.09.91-3.17-.71-4l-.47-.16a2.58,2.58,0,0,1,.47.16c3,1,7.29,1.1,9.52,2.77,1.17,1.18,3.52-4.7,3.52-2.93C112.46,111.05,107.76,115.75,105.41,121Zm1.7-12.19.12-.06s0,0,0,.06A.06.06,0,0,1,107.11,108.85ZM137.35,82.1c.15-6.17.66-8.53,7.16-13.17-6.62,3.2-7.93,7.22-8.23,13.41a26.94,26.94,0,0,0-10.08,4.1c-1.92-5.18,4.2-12.2,7.42-15-4.42,2.75-10.4,10-8.27,15.64a24.59,24.59,0,0,0-3.06,2.83c-1.9,2-3.41,3.69-4.62,5.1-.69.81-1.28,1.54-1.78,2.23a.41.41,0,0,0,0,.09c-.48.71-.87,1.35-1.18,1.89,0,0,0,0,0,0-1.29,2.21-1.85,3.45-2.77,3.49s-1.64-1.08-2.09-1.9a9.76,9.76,0,0,1-.78-2.63,10.05,10.05,0,0,1,.07-3.26c0-.07,0-.14.05-.21l.06-.26a10.56,10.56,0,0,1,.61-1.85c.08-.18.16-.36.24-.52l.11-.23.1-.18.15-.28.11-.19a7.57,7.57,0,0,0,.6-1.47c-1.23.14-2.58.82-3.93.15,2-4,1.44-10.7,5.74-12.85,0-.56.08-1.13.12-1.73,2-3.25,6.11-4,10.09-5,1.27-2.7,5.2-1.65,5.2-4.53h1.76c.59.59,0,1.18-.59,1.18,2.94.59,4.7-2.94,7.64-1.18a1.57,1.57,0,0,0-.42.94c7.83-1.1,16.45-.92,23.83-1.34l.52-.12c-2.24,3.8-3.4,8.49-9.07,11.79C146.57,80.25,141.81,81.13,137.35,82.1Zm18,1.43a18.94,18.94,0,0,1-2.65-2.88l1-.63c.38-.24.73-.49,1.06-.73h0c2.12.47,4.12-1.42,5.32-3.12a12.31,12.31,0,0,1,2.57-2c1.25-4.21,7.83-1.44,11.55-2.5v1l.85.11a13.73,13.73,0,0,1-8,6.37C163,79.91,158.15,80.86,155.3,83.53Z"/><path class="cls-1" d="M53.13,97c-3.75,2.14-9.94-.11-12.34,3a91.19,91.19,0,0,0,15.32-.93C55.83,97.83,53.63,98.46,53.13,97Z"/><path class="cls-1" d="M86,186.24c2.34,1.76,5.87.59,9.39.59,0-5.29-8.22-6.46-6.46-11.75.59-1.76,3.53-2.94,1.76-5.29a22.68,22.68,0,0,0-4.19-4.7c-.78,3.32-1.64,6.49-2.54,9.53A13.9,13.9,0,0,1,82,176.87a13.72,13.72,0,0,1-3.41,2.3h0a13.59,13.59,0,0,1-1.71.69h0a17.18,17.18,0,0,0-4,2.79.44.44,0,0,0,.21.07C77.8,182.72,81.33,183.89,86,186.24Z"/><path class="cls-1" d="M101.89,129.26a22.46,22.46,0,0,1-7.64-14.09c-.55-1.64-3.13-3.79-5.86-4.56.31,1.31.6,2.64.87,4A115.83,115.83,0,0,1,91,127.53a172.63,172.63,0,0,1-1.26,19.33c1.14-.47,1.63-2.71,2.12-1.74,1.76,3.53,2.35,6.47,7,6.47-.59-3.53,5.28-4.12,2.94-7.64C98.36,139.84,96,132.79,101.89,129.26Z"/><path class="cls-1" d="M40.88,73.9c-2.48-1.19-3.82-4.09-4.2-7.49-1.17,0-1.76-1.17-2.93-.59-.57-3.43-2.82-4.64-5.11-6.87C34.45,62.75,39.33,67.26,40.88,73.9Z"/><path class="cls-1" d="M174.14,71.7v1c-4.23-.54-8.2-.41-11.55,1.5C163.84,70,170.42,72.76,174.14,71.7Z"/><path class="cls-1" d="M175.08,38.75A54.32,54.32,0,0,0,167.35,46c.93-2.77,3.67-4.44,5-7.16C172.37,38.33,173.87,38.62,175.08,38.75Z"/><path class="cls-1" d="M118.31,67.15c-5,.89-4.13-7.18-3.06-10.85C116.09,59.05,117.18,62.52,118.31,67.15Z"/><path class="cls-1" d="M115.26,131.87l0-.09a59.28,59.28,0,0,1,.74-20.92c-5.08,3.71-2.45,11.54-5.28,16.64a4.41,4.41,0,0,0-2.35,1.18c5.28,7.63,1.17,17,.58,25.25,0,2.35,3.53,3.53,4.12,4.7.55,6.62,3.17,16.35,10.78,16.54C116.75,157.05,118.09,152,115.26,131.87Z"/><path class="cls-4" d="M87.81,219.77l-.3,3.42a3.6,3.6,0,0,0,0,1.27,2.17,2.17,0,0,0,1.92,1.41,4,4,0,0,0,2.39-.69,7.37,7.37,0,0,0,2.88-3.29c.55-1.26.74-2.65,1.19-3.95.38-1.12,1-2.29.65-3.42a1.23,1.23,0,0,0-.22-.46c-.47-.58-1.39-.33-2.09-.08a9.88,9.88,0,0,1-2.94.61,4.62,4.62,0,0,0-1.78,0C88,215.33,87.93,218.34,87.81,219.77Z"/><path class="cls-4" d="M99.49,215a3.22,3.22,0,0,0-1.22,1.39,4.56,4.56,0,0,0-.21,1.27c-.1,1.71-.15,3.59.9,4.94a4,4,0,0,0,3.1,1.45,5.13,5.13,0,0,0,3.25-1.22,2.09,2.09,0,0,0,.52-.59,2.46,2.46,0,0,0,.16-1.35,14.91,14.91,0,0,1-.09-2.75,9.81,9.81,0,0,0,.12-1.32C105.9,213.45,101.5,213.65,99.49,215Z"/><path class="cls-4" d="M111.69,215.14h5.66a.85.85,0,0,1,.59.15.75.75,0,0,1,.2.42,12.21,12.21,0,0,1,.3,3.51,2.62,2.62,0,0,1-.2,1c-.37.75-1.33,1-1.76,1.76-.27.44-.31,1-.61,1.41a2.69,2.69,0,0,1-1.6.86l-2.12.58a3.53,3.53,0,0,1-2.35.09c-1-.44-1.32-1.6-1.56-2.63a6.08,6.08,0,0,1-.24-1.79,6,6,0,0,1,1.45-3.05C110,216.63,110.62,215.14,111.69,215.14Z"/><path class="cls-4" d="M121.05,217.92a1.76,1.76,0,0,0-.59.38,2.12,2.12,0,0,0-.38.67,7.16,7.16,0,0,0-.85,4.11,7.38,7.38,0,0,0,1.47,2.76l1.34,1.81a1.52,1.52,0,0,0,.39.41,1.36,1.36,0,0,0,1.47-.27,5,5,0,0,0,2-4c0-.45-.08-.91-.12-1.36a15.4,15.4,0,0,0-.3-2.89C124.86,217.43,122.86,217.11,121.05,217.92Z"/><path class="cls-4" d="M128.12,222.85l-.48.89a4.48,4.48,0,0,0-.8,2.88.67.67,0,0,0,.13.34.81.81,0,0,0,.6.24A3.6,3.6,0,0,0,129,227a2.75,2.75,0,0,0,1.12-.71,3.68,3.68,0,0,0,.68-1.32c.33-1,.52-2.5-.45-3.29S128.56,222.05,128.12,222.85Z"/><path class="cls-4" d="M81.57,214.9a2.92,2.92,0,0,0-1,2,17.91,17.91,0,0,1-.27,2.32c-.14.53-.39,1-.56,1.54a4.29,4.29,0,0,0,.67,4.18,2.91,2.91,0,0,0,4,.34,4.68,4.68,0,0,0,.92-1.39,9.81,9.81,0,0,0,1.3-3.81C86.73,217.85,84.64,212.7,81.57,214.9Z"/><path class="cls-4" d="M74.74,230.28a1,1,0,0,0,.06.51.85.85,0,0,0,.57.35,2.3,2.3,0,0,0,2.37-.47,3.19,3.19,0,0,0,.46-2.12c0-.58,0-1.16.08-1.74a2.21,2.21,0,0,0-.37-1.86,1.4,1.4,0,0,0-2.33.76A24.66,24.66,0,0,0,74.74,230.28Z"/><path class="cls-4" d="M73,237.12c.06.6.17,1.19.28,1.77l.45,2.35a3,3,0,0,0,3.72-1.91l.68-1.33a5.35,5.35,0,0,0,.76-2.2c.07-1.52-1.09-2.79-2.16-3.86a1.92,1.92,0,0,0-.51-.39c-.88-.39-2.12.77-2.57,1.46A7.35,7.35,0,0,0,73,237.12Z"/><path class="cls-4" d="M79.11,237.16a7.59,7.59,0,0,0-.69,2.13L78,241.47a1.91,1.91,0,0,0-.06.82,1.39,1.39,0,0,0,.45.7,3.27,3.27,0,0,0,2.56.55,21.84,21.84,0,0,1,2.66-.38c.75,0,1.63.15,2.13-.41.33-.37.36-.93.64-1.34a6,6,0,0,1,.48-.54c.84-1,.49-2.54-.34-3.53C84.82,235.39,80.58,234.57,79.11,237.16Z"/><path class="cls-4" d="M88.31,242.36c-.06.28-.1.61.11.8a.83.83,0,0,0,.46.19c.67.12,1.34.21,2,.28a3.47,3.47,0,0,0,1.4,0,3.31,3.31,0,0,0,1.09-.63,23.48,23.48,0,0,0,3.78-4.12,2.58,2.58,0,0,0,.57-1,.88.88,0,0,0-.41-1,1.28,1.28,0,0,0-.48-.09c-1.28-.05-2.56,0-3.84,0a4.56,4.56,0,0,0-2.07.37C89.46,238,88.66,240.82,88.31,242.36Z"/><path class="cls-4" d="M96.3,241.88a.57.57,0,0,0,.17.9,4.29,4.29,0,0,0,3.64.29,7.92,7.92,0,0,0,3.06-2.13,2.71,2.71,0,0,0,.54-.73,2,2,0,0,0-.28-2,4.51,4.51,0,0,0-1.6-1.26,4.38,4.38,0,0,0-2.58-.74c-.83.17-.51.66-.61,1.3C98.37,239.29,97.07,240.4,96.3,241.88Z"/><path class="cls-4" d="M104.36,239.94a6.27,6.27,0,0,0-.5,1.33,1,1,0,0,0,1.12,1.5,27,27,0,0,0,6.85-1.14,4.53,4.53,0,0,0,1.5-.68,1.78,1.78,0,0,0,.73-1.42,2,2,0,0,0-1.4-1.58c-1.72-.7-3.07.26-4.76.26A3.7,3.7,0,0,0,104.36,239.94Z"/><path class="cls-4" d="M118.56,236.08a4.9,4.9,0,0,1-2.79,1.32.67.67,0,0,0-.32,0,.53.53,0,0,0-.25.3,2.19,2.19,0,0,0,.47,2.37,4,4,0,0,0,1.18.7,2.8,2.8,0,0,0,4.19-.94c.41-.57.81-1.16,1.18-1.76a4.59,4.59,0,0,0,.66-1.44C123.5,233.65,119.7,235.23,118.56,236.08Z"/><path class="cls-4" d="M124.36,233.86c-.18.4-.44.75-.6,1.16a1.32,1.32,0,0,0,.07,1.24,1.71,1.71,0,0,0,1,.54,2.61,2.61,0,0,0,2.41-.16,2.54,2.54,0,0,0,.63-1,10,10,0,0,0,1.08-4.1c0-1.26-1.71-4.77-3.45-3.24-.52.45-.34,1.35-.41,2A11.64,11.64,0,0,1,124.36,233.86Z"/><path class="cls-5" d="M90.18,229.86A26.86,26.86,0,0,0,88.32,233c-.13.23-.36.65-.19,1a1,1,0,0,0,.45.39,3.92,3.92,0,0,0,3.23.18A4,4,0,0,0,94,232.22a1.6,1.6,0,0,0,.08-.94,4.28,4.28,0,0,0-.39-.73,1.87,1.87,0,0,1,.48-2.27,3.47,3.47,0,0,0-2.54.06A5.51,5.51,0,0,0,90.18,229.86Z"/><path class="cls-5" d="M101.1,229.72a3.84,3.84,0,0,0,1.08,2.17,2.1,2.1,0,0,0,.81.39,1.77,1.77,0,0,0,1.94-.71,2.86,2.86,0,0,0,.27-1c.18-1.32,1.32-7.57-1.27-7.09-.84.15-1.88,1.87-2.32,2.52A4,4,0,0,0,101.1,229.72Z"/><path class="cls-5" d="M109.66,229c0,1.26,1.31,2.44.8,3.58-.12.27-.34.55-.23.81a.74.74,0,0,0,.45.34,4.74,4.74,0,0,0,1.19.24,1.25,1.25,0,0,0,1-.31,1.38,1.38,0,0,0,.21-1l-.06-1.64a3.21,3.21,0,0,1,.29-1.79c.2-.33.52-.58.71-.91a2.83,2.83,0,0,0,.29-1.14.74.74,0,0,0,0-.49C112.92,224.6,109.7,227.46,109.66,229Z"/><path class="cls-5" d="M118,228.67c-.17,0-.22-.2-.36-.28-.43-.24-2,.53-2.16,1.79-.09,1,.56,1.95.46,2.94a3.68,3.68,0,0,0,2.37-.2,3.74,3.74,0,0,0,1.17-1.38l1-1.63a.94.94,0,0,0-.12-1.37c-.27-.33-.46-.57-.79-.63a1.31,1.31,0,0,0-1,.32C118.3,228.45,118.23,228.68,118,228.67Z"/><path class="cls-5" d="M106.47,230.6c-.14.1-.29,0-.45,0-.49.07-1.29,1.67-.62,2.73.53.85,1.63,1.2,2.15,2.06a2.74,2.74,0,0,0,1.84-3.41l-.23-1.89a1.26,1.26,0,0,0-.21-.66,1.22,1.22,0,0,0-.72-.34,1.09,1.09,0,0,0-1.61.84C106.54,230.27,106.63,230.5,106.47,230.6Z"/><path class="cls-5" d="M106.52,224.92l2.3-.44a2.15,2.15,0,0,1,.8,0,1.48,1.48,0,0,1,1.06,1.06,4.34,4.34,0,0,1,.1,1.57.54.54,0,0,1-.14.39.54.54,0,0,1-.31.06h-3.44a1,1,0,0,1-.53-.1,1.1,1.1,0,0,1-.3-.34C105.43,226.06,105,225.23,106.52,224.92Z"/><path class="cls-5" d="M94.23,233.77a1.2,1.2,0,0,0,.88.82,3.86,3.86,0,0,0,1.27,0,62.86,62.86,0,0,1,6.29-.24,2.1,2.1,0,0,0-.21-1.38,2.15,2.15,0,0,0-1.68-.67C99.59,232.23,93.7,231.29,94.23,233.77Z"/><path class="cls-5" d="M115.18,225.83a3,3,0,0,1,.3-.34c.2-.19.48-.15.84-.17l1.35-.07a2.69,2.69,0,0,1,1.46.19,1,1,0,0,1,.48,1.24,1.23,1.23,0,0,1-.69.48,8.07,8.07,0,0,1-3.64.48c-.62-.07-.84-.2-.9-.37-.13-.35.39-1,.53-1.12Z"/><path class="cls-5" d="M97.37,224.46c-.53.08-.72-.05-1,.06s-.35.53-.48.92c-.23.73-.36,1.72.31,2.1a1.94,1.94,0,0,0,.68.17,5.37,5.37,0,0,0,2.79-.2,1.86,1.86,0,0,0,1.09-2.3,2,2,0,0,0-1.31-.9,3.26,3.26,0,0,0-1.64,0C97.69,224.37,97.59,224.42,97.37,224.46Z"/><path class="cls-5" d="M97.31,228.74c-.53.09-.72,0-1,.06s-.36.53-.49.92c-.23.73-.36,1.72.31,2.1a2,2,0,0,0,.68.17,5.37,5.37,0,0,0,2.79-.2,1.85,1.85,0,0,0,1.09-2.3,2,2,0,0,0-1.31-.9,3.27,3.27,0,0,0-1.64,0C97.63,228.65,97.53,228.7,97.31,228.74Z"/><path class="cls-5" d="M86.19,227.28a3.41,3.41,0,0,0-2.28,3.06.59.59,0,0,0,.21.41.76.76,0,0,0,.47.1h1.52a4.55,4.55,0,0,0,1.43-.15,4.39,4.39,0,0,0,2.2-2.39c.23-.45.45-1,.16-1.43s-1.33-.22-1.64-.15c-.5.11-.74.29-1.56.45Z"/><path class="cls-5" d="M97.35,231.32a10.39,10.39,0,0,1-3.5-4.13,10.93,10.93,0,0,1-.34-8c2.25,5.81,3,7.15,3.32,7.07s-.93-3.3.39-6.81a15.64,15.64,0,0,1,2.58-4,46.74,46.74,0,0,1,4-4.57,15.68,15.68,0,0,1,1.64,9.31c-.67,4.14-3.21,7-3,7.2s2.43-2.36,4.18-5.82a27.51,27.51,0,0,0,2.41-7c.64,1.53,2.22,5.91.43,9.66a19.74,19.74,0,0,1-2.69,3.84,11.28,11.28,0,0,1-3,2.93C101.47,232.37,98.77,231.78,97.35,231.32Z"/><path class="cls-6" d="M98,231.51a9.46,9.46,0,0,1-3.35-3.66,9.64,9.64,0,0,1-.84-6.16c2.36,4.63,3.21,5.59,3.52,5.47s-.53-2.36.35-5.18a10.29,10.29,0,0,1,1.75-3.2,14,14,0,0,1,3.49-3.28,13.71,13.71,0,0,1,1.11,7c-.38,3.17-1.93,5.37-1.58,5.58s2.33-2.24,3.77-4.43a37.06,37.06,0,0,0,2.78-5,12.35,12.35,0,0,1-.58,6.79,12,12,0,0,1-1.55,2.76,8.86,8.86,0,0,1-3.56,3.18A7.76,7.76,0,0,1,98,231.51Z"/><path class="cls-7" d="M97.29,195.81c-1.35-.07-3.43-.39-7.59-1-2.46-.38-4.55-.74-6.12-1l-2,6.52,22.05,3.64c1.59-4.82,1-6.75.09-7.59S101.53,196,97.29,195.81Z"/><path class="cls-7" d="M110,195.81c1.35-.07,3.43-.39,7.58-1,2.47-.38,4.56-.74,6.13-1l2,6.52-22.06,3.64c-1.58-4.82-1-6.75-.08-7.59S105.73,196,110,195.81Z"/><path class="cls-7" d="M107,203.78c4-1.06,6.87-3.41,9.31-5.43,3.56-2.94,4.12-4.7,6.33-4.78a4.63,4.63,0,0,1,4.4,2.58c.83,2.18-1.18,4.54-1.94,5.43-1.06,1.25-2.08,1.87-7.11,4.14-3.57,1.61-5.6,2.53-9.05,3.88-4,1.55-4.35,2.21-5.17,1.94-1.83-.6-3-4.36-1.69-6.21C103,204.12,104.29,204.5,107,203.78Z"/><path class="cls-7" d="M100.69,203.78c-4-1.06-6.87-3.41-9.31-5.43-3.56-2.94-4.12-4.7-6.33-4.78a4.63,4.63,0,0,0-4.4,2.58c-.83,2.18,1.18,4.54,1.94,5.43,1.06,1.25,2.08,1.87,7.11,4.14,3.57,1.61,5.6,2.53,9,3.88,4,1.55,4.35,2.21,5.17,1.94,1.83-.6,3-4.36,1.69-6.21C104.76,204.12,103.42,204.5,100.69,203.78Z"/><path class="cls-8" d="M95.38,210.68c.11.47.46.74,2.48,1.68,2.71,1.28,3.11,1.27,3.47,1.1a2.17,2.17,0,0,0,1.06-2c0-1.66-2.06-2.71-3.39-3a3.28,3.28,0,0,0-2.94.48A2.08,2.08,0,0,0,95.38,210.68Z"/><path class="cls-9" d="M108,203.5c.69,1.88,1.39,3.77,2.08,5.66l-4.45,1.73-1.17-6.61Z"/><path class="cls-9" d="M99,203.22l-3.16,5.06,7.61,3.3a3.08,3.08,0,0,0,1.23-.48,4.16,4.16,0,0,0,1.32-5,3.75,3.75,0,0,0-1.24-1.47,28.92,28.92,0,0,1-3.63-.74C100.34,203.68,99.63,203.45,99,203.22Z"/><path class="cls-8" d="M107.8,206c.23.41.16.85-.67,2.91-1.12,2.78-1.42,3.06-1.79,3.17a2.17,2.17,0,0,1-2.13-.72c-1.11-1.24-.35-3.4.43-4.51a3.29,3.29,0,0,1,2.48-1.65A2.11,2.11,0,0,1,107.8,206Z"/><path class="cls-10" d="M116.94,171.15a6.16,6.16,0,0,0-2.66-3.65c-1.56-.8-2.71-.07-3.89-1.09s-.83-2.58-1.81-2.89c-.79-.25-1.09.73-2.76,1.08a7,7,0,0,1-4-.51c-.82-.4-.89-.68-1.3-.64-1.14.09-1.12,2.24-2.62,3.67-1.69,1.6-3.26.38-5.1,1.65-2.14,1.47-2.28,4.7-2.45,8.5a17.7,17.7,0,0,0,1,7.76,9.86,9.86,0,0,0,3.8,5.17A7.82,7.82,0,0,0,97,191a9.52,9.52,0,0,0-.26,1.88,9.29,9.29,0,0,0,.6,3.67c1.11,2.48,4.23,3.79,6.82,3.83a8.49,8.49,0,0,0,5.93-2.44,5.18,5.18,0,0,0,1.42-2.55,12.89,12.89,0,0,0,0-2.47c0-.78,0-1.42-.05-1.85l.84-.79.46-.41c.27-.34.66-.84,1.08-1.48.63-1,1.85-3.32,2.84-8.36C117.53,175.7,117.82,173.51,116.94,171.15ZM96.6,184c-1.86-5.37.12-10.73.69-10.69s.66,4,.51,6.89a34.76,34.76,0,0,1-.66,5.13C97,184.91,96.76,184.47,96.6,184ZM113,181a13.48,13.48,0,0,1-.69,3.07,14.2,14.2,0,0,1-1.19,2.47c-.11-.78-.21-1.62-.26-2.54,0-.62-.07-1.56,0-2.74,0-.3.33-8.55,1.14-8.57C112.58,172.65,113.33,177.59,113,181Z"/><line class="cls-10" x1="100.39" y1="189.69" x2="97.14" y2="185.33"/><line class="cls-10" x1="98.15" y1="191.41" x2="96.11" y2="190.71"/><line class="cls-10" x1="108.87" y1="189.43" x2="111.1" y2="186.52"/><line class="cls-10" x1="111.85" y1="190.7" x2="110.28" y2="192.17"/><path class="cls-11" d="M98.15,191.41c.38,1,.94,2.35,1.72,4a9.76,9.76,0,0,0,1.9,3.1c1.08,1,3.22,2.22,4.48,1.38,1.43-1,.76-3.87.69-4.14a7.37,7.37,0,0,0-2.58-3.79,9.56,9.56,0,0,0-1.13-.84,12.79,12.79,0,0,0-2.84-1.4Z"/><path class="cls-11" d="M108.87,189.43a8.06,8.06,0,0,1-2.06,1.72c-1.9,1.1-3,.66-5.35,1.73-1.39.62-2.67,1.19-3,2.41-.45,1.59,1,3.2,1.21,3.45A3.93,3.93,0,0,0,102,200.2c1.37.14,2.62-1.8,6-5.6,1-1.08,1.78-1.93,2.27-2.43Z"/><path class="cls-12" d="M111,157.34c-.18,0-.34-.45-.61-.55l-.11,0a.36.36,0,0,0-.23.13h0a1.68,1.68,0,0,0-.2.32s0,.05-.05.06a.45.45,0,0,1-.12.16h0a.85.85,0,0,1-.19.14c-1.67,1-7.52.22-9.46,0h-.09l-.46,0a1.24,1.24,0,0,1-.53-.11,1.72,1.72,0,0,1-.22-.14.31.31,0,0,0-.14-.1.11.11,0,0,0-.08,0c-.25,0-.39.33-.46.3s0-.33,0-.64.26-.94.26-.94h0l.16-.44c.07-.18.12-.36.19-.54s.2-.54.29-.82c.27-.76.53-1.53.79-2.29,7.38-1,9.31-.68,9.49-.11a2.57,2.57,0,0,0,.6,1.5c.15.17.27.21.41.41a1.25,1.25,0,0,1,.14.32,2.61,2.61,0,0,1,.08.42,2.86,2.86,0,0,0,.08.43,1.53,1.53,0,0,0,.31.62,2.08,2.08,0,0,1,.25.5C111.26,156.55,111.15,157.29,111,157.34Z"/><path class="cls-13" d="M100.5,152.41a5.17,5.17,0,0,0-.42,1c-.08.26-.16.53-.23.82-.11.48-.21,1-.29,1.42,0,.19,0,.36-.08.53a1.3,1.3,0,0,1-.14.26h0c-.2.32-.53.54-.69.83a.31.31,0,0,0-.14-.1c.16-.37.58-.76.64-1.1,0-.14,0-.3,0-.46v-.06s0-.05,0-.06,0-.28,0-.42h0c0-.44.11-.91.2-1.36a5.77,5.77,0,0,1,.48-1.56Z"/><path class="cls-13" d="M99.94,157.68c-1.72-2.37.9-1.83-.34-4a.73.73,0,0,1,.16-.56c.13.1.37.32.48.43.63,1.38.05,1.71-.65,2.83C99.71,156.68,100,157.42,99.94,157.68Z"/><path class="cls-13" d="M99.73,154.09c-.19.13-.24.74-.5,1l0,.05c-.34.15-.57.22-.75.32.07-.18.12-.36.19-.54a.4.4,0,0,0,.3-.29c.06-.3.15-.85.42-1l.09.12Z"/><path class="cls-13" d="M99.19,155.49a.15.15,0,0,1,0,.06v.06c0,.17-.07.39-.1.52-.37-.13-.73.34-1.07.68.1-.44.26-.94.26-.94h0a1,1,0,0,1,.92-.38Z"/><path class="cls-13" d="M109.82,157.48c-.37.15-.49-.59-.72-.89-2.22-1.87-4.29-2.35-1.26-5.11a6.54,6.54,0,0,1,.4.52C104.76,155,108.72,154.48,109.82,157.48Z"/><path class="cls-13" d="M110.43,156.69l-.09.1-.11,0a.36.36,0,0,0-.23.13.68.68,0,0,1,.18-.33c0-.73-.71-1.43-1.35-2.12h0c-.2-.22-.38-.43-.54-.64a1.37,1.37,0,0,1-.26-1.62h0a1.09,1.09,0,0,1,.17-.22h0l.11-.11a3.72,3.72,0,0,1,.27.57,1.6,1.6,0,0,0,.4,1.48c.29.4.67.8,1,1.2A1.82,1.82,0,0,1,110.43,156.69Z"/><path class="cls-13" d="M111,155.67a4.25,4.25,0,0,1-1-.58,5,5,0,0,0-1.14-.64,1.17,1.17,0,0,0-1,0c0-.16-.13-.47-.17-.63a2.21,2.21,0,0,1,.58,0,3.34,3.34,0,0,1,.7.08,1.32,1.32,0,0,1,.52.23,7.76,7.76,0,0,0,1.3,1.25A1.19,1.19,0,0,1,111,155.67Z"/><path class="cls-13" d="M110.42,154.32a5.13,5.13,0,0,1-1.4-.83c.08-.14.27-.41.36-.54.26.23.6.66,1,1A2.61,2.61,0,0,1,110.42,154.32Z"/><path class="cls-13" d="M109.44,157.67c-.18-.17.27-1,.12-1.21-.14-.39-.87-.44-1-.85l.6-.22C110.15,155.94,110.18,156.8,109.44,157.67Z"/><path class="cls-11" d="M100.08,152.89a12.83,12.83,0,0,0-.19,6.34c.46,2.24,1,4.71,3,5.62a3.78,3.78,0,0,0,2.65.2c2.37-.76,3.06-4,3.49-6a12.76,12.76,0,0,0-.25-6.6c-.52-1.55-1-3-2.4-3.62-1.61-.71-3.56.11-4.65,1.1A6,6,0,0,0,100.08,152.89Z"/><path class="cls-14" d="M103.15,153.61c-.65-.3-2.29-.71-2.64.15C100.43,152.68,102.62,153.19,103.15,153.61Z"/><path class="cls-14" d="M105.65,153.6c.53-.41,2.71-.92,2.64.16C107.94,152.9,106.3,153.31,105.65,153.6Z"/><path class="cls-14" d="M106.35,161.85c-.72.72-3.42,1-3.59,0C103.31,162.51,105.47,162.49,106.35,161.85Z"/><path class="cls-14" d="M105.11,159.41c-2,.67-1-1-.62-1.86C104.77,158.42,102.8,159.82,105.11,159.41Z"/><polyline class="cls-15" points="99.18 151.4 93.23 151.4 93.23 152.31 99.04 152.31 109.55 152.31 115.67 152.31 115.67 151.4 109.41 151.4"/><path class="cls-15" d="M99.18,151.4c.72-3.84,2.74-6.6,5.12-6.6s4.39,2.76,5.11,6.6"/><line class="cls-15" x1="109.55" y1="152.31" x2="99.04" y2="152.31"/><path class="cls-16" d="M101.25,155.32a1.08,1.08,0,0,1,1.17-.89,1.14,1.14,0,0,1,1.16,1c0,.49-.51.05-1.16.1S101.19,156.31,101.25,155.32Z"/><ellipse cx="102.44" cy="155.09" rx="0.49" ry="0.38"/><path class="cls-16" d="M107.61,155.27a1.08,1.08,0,0,0-1.17-.89,1.14,1.14,0,0,0-1.16,1c0,.49.51,0,1.16.1S107.66,156.26,107.61,155.27Z"/><ellipse cx="106.42" cy="155.03" rx="0.49" ry="0.38"/><path class="cls-17" d="M67.8,195.06a51.09,51.09,0,0,0-17.34-1.64c-8.47.69-10.63,3.12-11.51,4.42-.46.69-1.84,2.79-1.15,4.46.82,2,3.94,1.78,18.77,1.37,6.54-.18,9.47-.23,10.92-2.51C68.69,199.25,68.28,196.73,67.8,195.06Z"/><path class="cls-17" d="M70.82,202.29c-1.27,1.76-3.41,1.89-7.4,2.14-2.5.15-4.39.24-5.65-1.05a4.17,4.17,0,0,1-1.16-2.47,1.24,1.24,0,0,0,1.21-.5,1.29,1.29,0,0,0,.17-1l1.34-.17c1.61-.16,2.9-.37,3.7-.48a5.83,5.83,0,0,1,1.14-1.88,5.71,5.71,0,0,1,2.62-1.61c.48-.13,2.26-.64,3.5.19C72.12,196.66,72.3,200.24,70.82,202.29Z"/><path class="cls-18" d="M57.58,203.19a16.26,16.26,0,0,0,3.13,0,15.16,15.16,0,0,0,2.39-.43"/><path class="cls-19" d="M57.82,200.41a1.24,1.24,0,0,1-1.21.5,1.6,1.6,0,0,1,.25-1c.22-.28.52-.39,1.13-.47A1.29,1.29,0,0,1,57.82,200.41Z"/><path class="cls-18" d="M58,199.42v0"/><path class="cls-18" d="M64.85,198.59a1,1,0,0,1,.5-.53.93.93,0,0,1,.71-.07"/><path class="cls-18" d="M68.45,195c-.16,1.39-.32,2.78-.47,4.16s.47,1.73.66,1.82c.58.27,1.4-.27,1.79-.68,1.41-1.43.45-4.17.36-4.42"/><line class="cls-20" x1="60.04" y1="201.53" x2="59.11" y2="199.76"/><line class="cls-20" x1="60.79" y1="201.41" x2="60.77" y2="199.72"/><line class="cls-20" x1="61.68" y1="201.46" x2="62.12" y2="199.72"/><path class="cls-21" d="M55.45,202.76a23.19,23.19,0,0,1-6.82,2.58q-.43-.45-.84-.9c.2-.27.41-.52.61-.79l-.73-1,.56-.91-.84-.83c.23-.45.46-.89.69-1.35a15.41,15.41,0,0,1,4.67,1.45A16.43,16.43,0,0,1,55.45,202.76Z"/><path class="cls-17" d="M38.76,200.61a20.19,20.19,0,0,1,9.28-1c-.23.45-.46.9-.68,1.35.28.27.55.55.84.82l-.56.92.73,1-.62.78.84.9a14,14,0,0,1-5.76-.06c-1.52-.35-4.55-1.09-5.14-3.22a3.15,3.15,0,0,1,.1-1.89"/></g></g></svg>