<svg xmlns="http://www.w3.org/2000/svg" xmlns:xlink="http://www.w3.org/1999/xlink" viewBox="0 0 69.22 116.17"><defs><style>.cls-1{fill:#69421d;}.cls-1,.cls-15,.cls-16,.cls-18,.cls-3,.cls-9{stroke:#000;}.cls-1,.cls-10,.cls-11,.cls-12,.cls-13,.cls-14,.cls-15,.cls-16,.cls-18,.cls-3,.cls-4,.cls-9{stroke-miterlimit:10;}.cls-1,.cls-10,.cls-11,.cls-12,.cls-13,.cls-14,.cls-6,.cls-8{stroke-width:0.25px;}.cls-2{fill:#f6861f;}.cls-2,.cls-5,.cls-6,.cls-8{stroke:#8c6239;stroke-linejoin:round;}.cls-12,.cls-13,.cls-14,.cls-2,.cls-5,.cls-6,.cls-8{stroke-linecap:round;}.cls-3{fill:#c69c6d;}.cls-3,.cls-9{stroke-width:0.1px;}.cls-10,.cls-13,.cls-4,.cls-5{fill:none;}.cls-10,.cls-11,.cls-13,.cls-4{stroke:#603813;}.cls-4{stroke-width:0.5px;}.cls-6{fill:#623000;}.cls-7{fill:#342d14;}.cls-8{fill:#773a26;}.cls-11,.cls-12,.cls-9{fill:#f15a24;}.cls-12,.cls-14{stroke:#42210b;}.cls-14{opacity:0.1;}.cls-15,.cls-17{fill:#d22026;}.cls-15,.cls-16,.cls-18{stroke-width:0.05px;}.cls-16{fill:#666;}.cls-18{fill:#ccc;}</style><symbol id="Deleted_Symbol" data-name="Deleted Symbol" viewBox="0 0 106.8 8.75"><polyline class="cls-1" points="3.13 0.13 103.88 0.13 103.88 8.62 3.13 8.62"/><path class="cls-1" d="M106.67,4.18c.06,2.05-1.13,4.43-2.69,4.44s-2.71-2.22-2.73-4.2S102.43.11,104,.13,106.61,2.3,106.67,4.18Z"/><path class="cls-1" d="M3.13,8.62a4.54,4.54,0,0,1-3-4.06,4.57,4.57,0,0,1,3-4.44"/></symbol><symbol id="New_Symbol_3" data-name="New Symbol 3" viewBox="0 0 106.8 8.75"><use width="106.8" height="8.75" xlink:href="#Deleted_Symbol"/></symbol></defs><g id="Layer_2" data-name="Layer 2"><g id="Layer_1-2" data-name="Layer 1"><use width="106.8" height="8.75" transform="translate(2.32 76.76) scale(0.61 0.64)" xlink:href="#New_Symbol_3"/><use width="106.8" height="8.75" transform="translate(2.18 82.37) scale(0.61 0.64)" xlink:href="#New_Symbol_3"/><use width="106.8" height="8.75" transform="translate(2.18 88.03) scale(0.61 0.64)" xlink:href="#New_Symbol_3"/><use width="106.8" height="8.75" transform="translate(2.18 93.77) scale(0.61 0.64)" xlink:href="#New_Symbol_3"/><use width="106.8" height="8.75" transform="translate(2.25 99.28) scale(0.61 0.64)" xlink:href="#New_Symbol_3"/><use width="106.8" height="8.75" transform="translate(2.11 104.9) scale(0.61 0.64)" xlink:href="#New_Symbol_3"/><use width="106.8" height="8.75" transform="translate(2.11 110.55) scale(0.61 0.64)" xlink:href="#Deleted_Symbol"/><rect class="cls-2" x="11.11" y="88.03" width="13.84" height="16.86"/><path class="cls-3" d="M11.11,88v8.43C13.47,96,17.85,90.33,18,88c.32,2.37,4.5,8,6.91,8.67V88Z"/><path class="cls-4" d="M18,88v16.86"/><line class="cls-4" x1="11.11" y1="96.58" x2="24.94" y2="96.82"/><rect class="cls-5" x="11.11" y="88.03" width="13.84" height="16.86"/><path class="cls-6" d="M45.3,92.79v20.07H59V92.79C59,84.64,45.32,84.64,45.3,92.79Z"/><path class="cls-7" d="M58.35,100.87c0-1-1.75-1-1.73,0S58.37,101.89,58.35,100.87Z"/><rect class="cls-8" x="40.86" y="113.11" width="21.49" height="0.62"/><path class="cls-9" d="M69.1,77c-1.08,1.5-5.83,1.6-6.82.58-1.09,1.14-6.08,1-6.9-.06-1,1.19-6,1.22-6.88.13-1.4,1.55-6,1.14-6.9-.05-1.18,1.33-5.89,1.17-6.9-.08-1,1.58-5.47,2.09-7,.49-.83,1-5.63,1.2-6.84-.25-1,1.13-5.81,1.1-6.84-.2-1,1.08-5.9,1-6.94-.2l-.11,0H7c-.94,1-5.76,1-6.84-.24.57-2.64,1.15-5.28,1.72-7.93H67.42Z"/><path class="cls-9" d="M68.25,71.93c-1.16,1.56-5.76,1.55-6.65.57l-.11.06c-1,1.11-5.93.85-6.6-.11l-.11.07h0c-1,1.15-5.73,1.1-6.61.06L48,72.7h0c-1.38,1.44-5.76,1-6.56-.17l-.1.06h0c-1.11,1.26-5.75,1.05-6.62-.15-1,1.61-5.41,2.06-6.81.48-1,1-5.46,1.17-6.67-.24,0,0,0,0,0,0h0c-.74,1-5.37,1.15-6.43-.08h0l-.2-.14c-1,1.07-5.74,1-6.76-.2,0,0,0,0-.06,0h0c-1.38,1.14-5.53,1-6.71-.22.56-2.64,1.11-5.28,1.67-7.92H66.61Q67.42,68.07,68.25,71.93Z"/><path class="cls-9" d="M67.24,66.86h0c-1.12,1.51-5.45,1.59-6.45.56l0,0c-1,1.13-5.73.93-6.48-.07l0,0c-1,1.16-5.52,1.19-6.49.1-1.32,1.53-5.66,1.15-6.53-.05-1.13,1.29-5.48,1.21-6.53-.09-.88,1.56-5.19,2.11-6.6.5-.92,1-5.21,1.22-6.48-.25h0c-.89,1-5.3,1.2-6.48-.21-1.35,1.26-5.67.89-6.57-.2l0,0C7.64,68.26,3,68.29,2,67c.53-2.64,1.08-5.28,1.62-7.92H65.65C66.17,61.69,66.71,64.28,67.24,66.86Z"/><path class="cls-9" d="M66.31,61.78h0c-1.1,1.53-5.32,1.56-6.25.55-1.09,1.17-5.49,1-6.34,0l0,0c-1,1.18-5.35,1.19-6.3.11-1.29,1.53-5.48,1.15-6.34,0-1.12,1.31-5.35,1.19-6.34-.08h0c-.89,1.56-5,2.11-6.42.49h0c-.82,1-5.14,1.18-6.28-.25h0c-1.3,1.21-5.07,1-6.13-.11l-.15-.11c-.95,1.09-5.38,1-6.37-.2C8.38,63.21,4,63.22,3,62h0Q3.72,58,4.52,54H64.77Q65.55,57.91,66.31,61.78Z"/><path class="cls-9" d="M65.32,56.71c-1.07,1.52-5.07,1.61-6.07.57l0,0c-1,1.13-5.3,1-6.11-.07-.91,1.2-5.25,1.22-6.13.13l-.08.07c-1.29,1.49-5.24,1-6-.12l-.08.06c-1,1.28-5.22,1.07-6.06-.14-.94,1.65-5,2-6.21.48l-.08,0h0c-.85,1-5,1.07-6-.29-1,1.18-5.16,1.06-6.08-.19h0c-.93,1.08-5.2,1-6.17-.2-1,1.15-5.3,1-6.18-.19L5.52,49h58.3Z"/><path class="cls-9" d="M64.43,51.64c-1,1.5-5,1.61-5.89.56-1,1.16-5.14,1-5.95,0,0,0,0,0,0,0h0c-.94,1.17-5,1.22-5.94.11l0,0h0c-1.22,1.49-5.09,1.11-5.91-.09h0c-.77,1.12-4.84,1.34-5.94-.09-.89,1.57-4.67,2.1-6,.48h0c-.82,1-4.81,1.19-5.91-.25l0,0c-.8,1-4.84,1.16-5.89-.22-.92,1.08-5,1-6-.21-.91,1.07-5,1.09-6-.18q.75-4,1.48-7.92H63C63.45,46.36,64,49.19,64.43,51.64Z"/><path class="cls-9" d="M63.55,46.91c-1,1.47-4.68,1.63-5.71.57-1.07,1.11-4.87,1-5.78,0h0c-.9,1.17-4.84,1.24-5.77.13-.87,1.21-4.58,1.48-5.78-.06h0c-1,1.3-4.84,1.18-5.78-.09-.84,1.52-4.43,2.15-5.85.48-.82,1-4.65,1.18-5.74-.25-1,1.15-4.68,1.13-5.72-.18-1,1-4.76,1.08-5.82-.22h0v0c-1,1.05-4.83,1-5.78-.22h0c.29-1.62.59-3.24.88-4.87,18.54.12,37.58.16,56.11.28C63,44,63.28,45.42,63.55,46.91Z"/><path class="cls-10" d="M34.7,42.34V77.52"/><path class="cls-11" d="M27.66,78c.49-11.83,1-23.89,1.43-35.72"/><path class="cls-11" d="M20.84,77.79c.88-11.76,1.77-23.74,2.66-35.5"/><path class="cls-11" d="M14.27,77.71C15.48,66,16.72,54,17.93,42.26"/><path class="cls-11" d="M40.3,42.37c.39,11.68.82,23.59,1.22,35.28"/><path class="cls-11" d="M45.89,42.39c.81,11.71,1.65,23.66,2.47,35.37"/><path class="cls-11" d="M55.34,77.56c-1.28-11.65-2.56-23.5-3.83-35.14"/><path class="cls-11" d="M62.21,77.61c-.6-4.23-1.33-9.21-1.94-13.43h0L57.11,42.44"/><path class="cls-12" d="M6.67,42.2l28,.14C25.71,42.3,15.66,42.27,6.67,42.2Z"/><path class="cls-12" d="M62.7,42.48l-11.19-.06C54.3,42.42,59.91,42.45,62.7,42.48Z"/><line class="cls-12" x1="62.7" y1="42.48" x2="69.1" y2="77"/><line class="cls-12" x1="51.51" y1="42.42" x2="34.7" y2="42.34"/><line class="cls-13" x1="12.29" y1="42.35" x2="7.07" y2="77.46"/><line class="cls-13" x1="6.64" y1="42.21" x2="0.13" y2="77.19"/><path class="cls-14" d="M69.08,77.07c-1.07,1.49-5.83,1.6-6.82.57-1.08,1.15-6.08,1-6.89,0-1,1.19-6,1.21-6.89.13-1.39,1.55-6,1.13-6.89,0-1.19,1.33-5.89,1.16-6.9-.08-1,1.58-5.48,2.09-7,.48-.82,1-5.63,1.21-6.84-.24-1,1.13-5.81,1.09-6.84-.2-1,1.08-5.9,1-6.94-.21L7,77.48H7c-.93,1-5.76,1-6.83-.25l.93-5.06H1c.25-1.07.76-4,1-5l0,0c.29-1.32.73-3.69,1-5.06h0c.33-1.61.67-3.48,1-5.1,19.48-4.69,39.37-9.51,58.86-14.2.56,3,1.1,6,1.67,9,0,0,0,0,0,0,.33,1.68.65,3.35,1,5l0,0c.33,1.68.67,3.36,1,5h0l-.08.07,1,5h0l0,0c.35,1.68.71,3.35,1.06,5l-.21.17C68.38,73.8,68.73,75.44,69.08,77.07Z"/><rect class="cls-15" x="13.53" y="34.81" width="7.44" height="1.37"/><line class="cls-15" x1="17.26" y1="34.81" x2="17.26" y2="36.18"/><path class="cls-16" d="M22.8,48c.14-4.35-11.07-4.35-10.93,0C11.73,52.35,22.94,52.35,22.8,48Z"/><path class="cls-16" d="M22.8,47.46c.14-4.35-11.07-4.35-10.93,0C11.73,51.81,22.94,51.81,22.8,47.46Z"/><path class="cls-17" d="M13.53,48.68V29.33H21V48.68A14.47,14.47,0,0,1,13.53,48.68Z"/><rect class="cls-15" x="13.53" y="29.33" width="7.44" height="1.37"/><line class="cls-15" x1="17.26" y1="29.33" x2="17.26" y2="30.7"/><rect class="cls-15" x="13.53" y="32.07" width="7.44" height="1.37"/><line class="cls-15" x1="17.26" y1="32.07" x2="17.26" y2="33.44"/><rect class="cls-15" x="13.53" y="30.7" width="7.44" height="1.37"/><rect class="cls-15" x="15.71" y="30.7" width="3.14" height="1.37"/><rect class="cls-15" x="13.53" y="33.44" width="7.44" height="1.37"/><rect class="cls-15" x="15.71" y="33.44" width="3.14" height="1.37"/><rect class="cls-15" x="13.53" y="34.81" width="7.44" height="1.37"/><line class="cls-15" x1="17.26" y1="34.81" x2="17.26" y2="36.18"/><rect class="cls-15" x="13.53" y="37.54" width="7.44" height="1.37"/><line class="cls-15" x1="17.26" y1="37.54" x2="17.26" y2="38.92"/><rect class="cls-15" x="13.53" y="36.18" width="7.44" height="1.37"/><rect class="cls-15" x="15.71" y="36.18" width="3.14" height="1.37"/><rect class="cls-15" x="13.53" y="38.92" width="7.44" height="1.37"/><rect class="cls-15" x="15.71" y="38.92" width="3.14" height="1.37"/><rect class="cls-15" x="13.53" y="40.28" width="7.44" height="1.37"/><line class="cls-15" x1="17.26" y1="40.28" x2="17.26" y2="41.65"/><rect class="cls-15" x="13.53" y="43.02" width="7.44" height="1.37"/><line class="cls-15" x1="17.26" y1="43.02" x2="17.26" y2="44.39"/><rect class="cls-15" x="13.53" y="41.65" width="7.44" height="1.37"/><rect class="cls-15" x="15.71" y="41.65" width="3.14" height="1.37"/><rect class="cls-15" x="13.53" y="44.39" width="7.44" height="1.37"/><rect class="cls-15" x="15.71" y="44.39" width="3.14" height="1.37"/><rect class="cls-15" x="13.53" y="45.76" width="7.44" height="1.37"/><line class="cls-15" x1="17.26" y1="45.76" x2="17.26" y2="47.13"/><rect class="cls-15" x="13.53" y="47.13" width="7.44" height="1.37"/><rect class="cls-15" x="15.71" y="47.13" width="3.14" height="1.37"/><rect class="cls-18" x="12.44" y="27.72" width="9.63" height="1.61"/></g></g></svg>